<?xml version="1.0" standalone="no"?>
<svg width="60cm" height="60cm" version="1.1"
xmlns="http://www.w3.org/2000/svg">
<desc>Graph bi-dimensional </desc>
<rect x="5cm" y="5cm" width="50cm" height="50cm" fill="none" stroke="black" stroke-width="0.1cm" />
<text x="5cm" y="3.5cm" font-family="Times New Roman" font-size="1.5cm" fill="black">File Name: ..\data\cells.csv, Epsilon: 10, Min Force: 0.001</text>
<g stroke="gray" stroke-width="0.125cm">
<line x1="10cm" y1="5cm" x2="10cm" y2="55cm" />
<line y1="10cm" x1="5cm" y2="10cm" x2="55cm" />
<line x1="15cm" y1="5cm" x2="15cm" y2="55cm" />
<line y1="15cm" x1="5cm" y2="15cm" x2="55cm" />
<line x1="20cm" y1="5cm" x2="20cm" y2="55cm" />
<line y1="20cm" x1="5cm" y2="20cm" x2="55cm" />
<line x1="25cm" y1="5cm" x2="25cm" y2="55cm" />
<line y1="25cm" x1="5cm" y2="25cm" x2="55cm" />
<line x1="30cm" y1="5cm" x2="30cm" y2="55cm" />
<line y1="30cm" x1="5cm" y2="30cm" x2="55cm" />
<line x1="35cm" y1="5cm" x2="35cm" y2="55cm" />
<line y1="35cm" x1="5cm" y2="35cm" x2="55cm" />
<line x1="40cm" y1="5cm" x2="40cm" y2="55cm" />
<line y1="40cm" x1="5cm" y2="40cm" x2="55cm" />
<line x1="45cm" y1="5cm" x2="45cm" y2="55cm" />
<line y1="45cm" x1="5cm" y2="45cm" x2="55cm" />
<line x1="50cm" y1="5cm" x2="50cm" y2="55cm" />
<line y1="50cm" x1="5cm" y2="50cm" x2="55cm" />
</g>
<g stroke="blue" stroke-width="0.45cm">
<rect style="opacity:0.6;fill:#000000;stroke:none" width="5cm" height="5cm" x="10cm" y="45cm" />
<line stroke="#000000" x1="7.5cm" y1="52.5cm" x2="12.5cm" y2="47.5cm" />
<rect style="opacity:0.6;fill:#000000;stroke:none" width="5cm" height="5cm" x="5cm" y="50cm" />
<rect style="opacity:0.6;fill:#000000;stroke:none" width="5cm" height="5cm" x="15cm" y="40cm" />
<line stroke="#000000" x1="12.5cm" y1="47.5cm" x2="17.5cm" y2="42.5cm" />
<rect style="opacity:0.6;fill:#000000;stroke:none" width="5cm" height="5cm" x="20cm" y="35cm" />
<line stroke="#000000" x1="17.5cm" y1="42.5cm" x2="22.5cm" y2="37.5cm" />
<rect style="opacity:0.6;fill:#FF7F00;stroke:none" width="5cm" height="5cm" x="40cm" y="10cm" />
<line stroke="#FF7F00" x1="42.5cm" y1="17.5cm" x2="42.5cm" y2="12.5cm" />
<rect style="opacity:0.6;fill:#FF7F00;stroke:none" width="5cm" height="5cm" x="40cm" y="15cm" />
</g>
</svg>