<?xml version="1.0" standalone="no"?>
<svg width="60cm" height="85cm" version="1.1"
xmlns="http://www.w3.org/2000/svg">
<desc>Graph bi-dimensional </desc>
<rect x="5cm" y="5cm" width="50cm" height="50cm" fill="none" stroke="black" stroke-width="0.1cm" />
<text x="5cm" y="57cm" font-family="Times New Roman" font-size="1.5cm" fill="black">File Name: ../data/PathBased/central/consolidate/cells-PathBased.csv</text>
<text x="5cm" y="59cm" font-family="Times New Roman" font-size="1.5cm" fill="black">Epsilon: 15, Min Force: 0.04, Number Clusters: 20</text>
<g stroke="gray" stroke-width="0.0833333cm">
<line x1="8.33333cm" y1="5cm" x2="8.33333cm" y2="55cm" />
<line y1="8.33333cm" x1="5cm" y2="8.33333cm" x2="55cm" />
<line x1="11.6667cm" y1="5cm" x2="11.6667cm" y2="55cm" />
<line y1="11.6667cm" x1="5cm" y2="11.6667cm" x2="55cm" />
<line x1="15cm" y1="5cm" x2="15cm" y2="55cm" />
<line y1="15cm" x1="5cm" y2="15cm" x2="55cm" />
<line x1="18.3333cm" y1="5cm" x2="18.3333cm" y2="55cm" />
<line y1="18.3333cm" x1="5cm" y2="18.3333cm" x2="55cm" />
<line x1="21.6667cm" y1="5cm" x2="21.6667cm" y2="55cm" />
<line y1="21.6667cm" x1="5cm" y2="21.6667cm" x2="55cm" />
<line x1="25cm" y1="5cm" x2="25cm" y2="55cm" />
<line y1="25cm" x1="5cm" y2="25cm" x2="55cm" />
<line x1="28.3333cm" y1="5cm" x2="28.3333cm" y2="55cm" />
<line y1="28.3333cm" x1="5cm" y2="28.3333cm" x2="55cm" />
<line x1="31.6667cm" y1="5cm" x2="31.6667cm" y2="55cm" />
<line y1="31.6667cm" x1="5cm" y2="31.6667cm" x2="55cm" />
<line x1="35cm" y1="5cm" x2="35cm" y2="55cm" />
<line y1="35cm" x1="5cm" y2="35cm" x2="55cm" />
<line x1="38.3333cm" y1="5cm" x2="38.3333cm" y2="55cm" />
<line y1="38.3333cm" x1="5cm" y2="38.3333cm" x2="55cm" />
<line x1="41.6667cm" y1="5cm" x2="41.6667cm" y2="55cm" />
<line y1="41.6667cm" x1="5cm" y2="41.6667cm" x2="55cm" />
<line x1="45cm" y1="5cm" x2="45cm" y2="55cm" />
<line y1="45cm" x1="5cm" y2="45cm" x2="55cm" />
<line x1="48.3333cm" y1="5cm" x2="48.3333cm" y2="55cm" />
<line y1="48.3333cm" x1="5cm" y2="48.3333cm" x2="55cm" />
<line x1="51.6667cm" y1="5cm" x2="51.6667cm" y2="55cm" />
<line y1="51.6667cm" x1="5cm" y2="51.6667cm" x2="55cm" />
</g>
<g stroke="blue" stroke-width="0.3cm">
<rect style="opacity:0.6;fill:#000000;stroke:none" width="3.33333cm" height="3.33333cm" x="15cm" y="48.3333cm" />
<line stroke="#000000" x1="17.6562cm" y1="52.0703cm" x2="15.6641cm" y2="50.6641cm" />
<rect style="opacity:0.6;fill:#000000;stroke:none" width="3.33333cm" height="3.33333cm" x="15cm" y="51.6667cm" />
<rect style="opacity:0.6;fill:#000000;stroke:none" width="3.33333cm" height="3.33333cm" x="11.6667cm" y="48.3333cm" />
<line stroke="#000000" x1="15.6641cm" y1="50.6641cm" x2="14.2188cm" y2="49.2188cm" />
<rect style="opacity:0.6;fill:#000000;stroke:none" width="3.33333cm" height="3.33333cm" x="11.6667cm" y="45cm" />
<line stroke="#000000" x1="14.2188cm" y1="49.2188cm" x2="13.0469cm" y2="47.7734cm" />
<rect style="opacity:0.6;fill:#000077;stroke:none" width="3.33333cm" height="3.33333cm" x="11.6667cm" y="41.6667cm" />
<line stroke="#000077" x1="10.5859cm" y1="43.7109cm" x2="11.7188cm" y2="43.6719cm" />
<rect style="opacity:0.6;fill:#000077;stroke:none" width="3.33333cm" height="3.33333cm" x="8.33333cm" y="41.6667cm" />
<rect style="opacity:0.6;fill:#0000FF;stroke:none" width="3.33333cm" height="3.33333cm" x="5cm" y="35cm" />
<line stroke="#0000FF" x1="8.75cm" y1="36.211cm" x2="7.65625cm" y2="36.4844cm" />
<rect style="opacity:0.6;fill:#0000FF;stroke:none" width="3.33333cm" height="3.33333cm" x="8.33333cm" y="35cm" />
<rect style="opacity:0.6;fill:#FF0000;stroke:none" width="3.33333cm" height="3.33333cm" x="8.33333cm" y="31.6667cm" />
<line stroke="#FF0000" x1="8.08595cm" y1="33.2031cm" x2="9.2969cm" y2="33.5938cm" />
<rect style="opacity:0.6;fill:#FF0000;stroke:none" width="3.33333cm" height="3.33333cm" x="5cm" y="28.3333cm" />
<line stroke="#FF0000" x1="8.08595cm" y1="33.2031cm" x2="8.125cm" y2="31.5625cm" />
<rect style="opacity:0.6;fill:#FF0000;stroke:none" width="3.33333cm" height="3.33333cm" x="5cm" y="31.6667cm" />
<rect style="opacity:0.6;fill:#FF0000;stroke:none" width="3.33333cm" height="3.33333cm" x="8.33333cm" y="28.3333cm" />
<line stroke="#FF0000" x1="8.125cm" y1="31.5625cm" x2="9.1927cm" y2="30cm" />
<rect style="opacity:0.6;fill:#007F00;stroke:none" width="3.33333cm" height="3.33333cm" x="8.33333cm" y="21.6667cm" />
<line stroke="#007F00" x1="9.9479cm" y1="25.9636cm" x2="10.625cm" y2="22.8386cm" />
<rect style="opacity:0.6;fill:#007F00;stroke:none" width="3.33333cm" height="3.33333cm" x="8.33333cm" y="25cm" />
<rect style="opacity:0.6;fill:#007F00;stroke:none" width="3.33333cm" height="3.33333cm" x="11.6667cm" y="18.3333cm" />
<line stroke="#007F00" x1="10.625cm" y1="22.8386cm" x2="13.0729cm" y2="20.1041cm" />
<rect style="opacity:0.6;fill:#007F7F;stroke:none" width="3.33333cm" height="3.33333cm" x="15cm" y="15cm" />
<line stroke="#007F7F" x1="14.5312cm" y1="17.1875cm" x2="16.9271cm" y2="16.0157cm" />
<rect style="opacity:0.6;fill:#007F7F;stroke:none" width="3.33333cm" height="3.33333cm" x="11.6667cm" y="15cm" />
<rect style="opacity:0.6;fill:#007F7F;stroke:none" width="3.33333cm" height="3.33333cm" x="18.3333cm" y="11.6667cm" />
<line stroke="#007F7F" x1="16.9271cm" y1="16.0157cm" x2="20cm" y2="13.8086cm" />
<rect style="opacity:0.6;fill:#7F007F;stroke:none" width="3.33333cm" height="3.33333cm" x="25cm" y="8.33333cm" />
<line stroke="#7F007F" x1="25.4688cm" y1="12.1875cm" x2="27.0312cm" y2="10.9375cm" />
<rect style="opacity:0.6;fill:#7F007F;stroke:none" width="3.33333cm" height="3.33333cm" x="25cm" y="11.6667cm" />
<rect style="opacity:0.6;fill:#7F7F00;stroke:none" width="3.33333cm" height="3.33333cm" x="28.3333cm" y="11.6667cm" />
<line stroke="#7F7F00" x1="30.3125cm" y1="10.8593cm" x2="29.7656cm" y2="11.875cm" />
<rect style="opacity:0.6;fill:#7F7F00;stroke:none" width="3.33333cm" height="3.33333cm" x="31.6667cm" y="8.33333cm" />
<line stroke="#7F7F00" x1="30.3125cm" y1="10.8593cm" x2="32.8125cm" y2="10.7422cm" />
<rect style="opacity:0.6;fill:#7F7F00;stroke:none" width="3.33333cm" height="3.33333cm" x="28.3333cm" y="8.33333cm" />
<rect style="opacity:0.6;fill:#7F7F00;stroke:none" width="3.33333cm" height="3.33333cm" x="31.6667cm" y="11.6667cm" />
<line stroke="#7F7F00" x1="32.8125cm" y1="10.7422cm" x2="32.8906cm" y2="12.1875cm" />
<rect style="opacity:0.6;fill:#5dff00;stroke:none" width="3.33333cm" height="3.33333cm" x="38.3333cm" y="11.6667cm" />
<line stroke="#5dff00" x1="37.0573cm" y1="12.6823cm" x2="39.6093cm" y2="13.3594cm" />
<rect style="opacity:0.6;fill:#5dff00;stroke:none" width="3.33333cm" height="3.33333cm" x="35cm" y="11.6667cm" />
<rect style="opacity:0.6;fill:#7676ed;stroke:none" width="3.33333cm" height="3.33333cm" x="41.6667cm" y="11.6667cm" />
<line stroke="#7676ed" x1="43.3073cm" y1="16.5364cm" x2="42.2657cm" y2="14.7656cm" />
<rect style="opacity:0.6;fill:#7676ed;stroke:none" width="3.33333cm" height="3.33333cm" x="41.6667cm" y="15cm" />
<rect style="opacity:0.6;fill:#007700;stroke:none" width="3.33333cm" height="3.33333cm" x="45cm" y="18.3333cm" />
<line stroke="#007700" x1="45.7032cm" y1="17.5cm" x2="46.4323cm" y2="19.4271cm" />
<rect style="opacity:0.6;fill:#007700;stroke:none" width="3.33333cm" height="3.33333cm" x="45cm" y="15cm" />
<rect style="opacity:0.6;fill:#007777;stroke:none" width="3.33333cm" height="3.33333cm" x="48.3333cm" y="21.6667cm" />
<line stroke="#007777" x1="47.8907cm" y1="22.7734cm" x2="48.6718cm" y2="24.4922cm" />
<rect style="opacity:0.6;fill:#007777;stroke:none" width="3.33333cm" height="3.33333cm" x="45cm" y="21.6667cm" />
<rect style="opacity:0.6;fill:#000000;stroke:none" width="3.33333cm" height="3.33333cm" x="48.3333cm" y="25cm" />
<line stroke="#000000" x1="48.2031cm" y1="26.4063cm" x2="49.6484cm" y2="26.875cm" />
<rect style="opacity:0.6;fill:#000000;stroke:none" width="3.33333cm" height="3.33333cm" x="45cm" y="25cm" />
<rect style="opacity:0.6;fill:#000077;stroke:none" width="3.33333cm" height="3.33333cm" x="51.6667cm" y="28.3333cm" />
<line stroke="#000077" x1="50.5078cm" y1="33.3594cm" x2="51.9531cm" y2="31.4844cm" />
<rect style="opacity:0.6;fill:#000077;stroke:none" width="3.33333cm" height="3.33333cm" x="48.3333cm" y="35cm" />
<line stroke="#000077" x1="50.5078cm" y1="33.3594cm" x2="50.4688cm" y2="36.3281cm" />
<rect style="opacity:0.6;fill:#000077;stroke:none" width="3.33333cm" height="3.33333cm" x="45cm" y="31.6667cm" />
<line stroke="#000077" x1="50.5078cm" y1="33.3594cm" x2="47.0703cm" y2="33.2031cm" />
<rect style="opacity:0.6;fill:#000077;stroke:none" width="3.33333cm" height="3.33333cm" x="48.3333cm" y="31.6667cm" />
<rect style="opacity:0.6;fill:#00007F;stroke:none" width="3.33333cm" height="3.33333cm" x="48.3333cm" y="41.6667cm" />
<line stroke="#00007F" x1="49.9804cm" y1="39.9414cm" x2="49.5312cm" y2="43.5156cm" />
<rect style="opacity:0.6;fill:#00007F;stroke:none" width="3.33333cm" height="3.33333cm" x="45cm" y="38.3333cm" />
<line stroke="#00007F" x1="49.9804cm" y1="39.9414cm" x2="47.1484cm" y2="39.8438cm" />
<rect style="opacity:0.6;fill:#00007F;stroke:none" width="3.33333cm" height="3.33333cm" x="48.3333cm" y="38.3333cm" />
<rect style="opacity:0.6;fill:#FF0000;stroke:none" width="3.33333cm" height="3.33333cm" x="45cm" y="48.3333cm" />
<line stroke="#FF0000" x1="47.1354cm" y1="47.1354cm" x2="45.625cm" y2="48.9453cm" />
<rect style="opacity:0.6;fill:#FF0000;stroke:none" width="3.33333cm" height="3.33333cm" x="45cm" y="45cm" />
<rect style="opacity:0.6;fill:#FF0000;stroke:none" width="3.33333cm" height="3.33333cm" x="41.6667cm" y="48.3333cm" />
<line stroke="#FF0000" x1="45.625cm" y1="48.9453cm" x2="43.8672cm" y2="50.7813cm" />
<rect style="opacity:0.6;fill:#007F00;stroke:none" width="3.33333cm" height="3.33333cm" x="38.3333cm" y="51.6667cm" />
<line stroke="#007F00" x1="41.7188cm" y1="52.1875cm" x2="40.7812cm" y2="53.3593cm" />
<rect style="opacity:0.6;fill:#007F00;stroke:none" width="3.33333cm" height="3.33333cm" x="41.6667cm" y="51.6667cm" />
<rect style="opacity:0.6;fill:#007F7F;stroke:none" width="3.33333cm" height="3.33333cm" x="41.6667cm" y="28.3333cm" />
<line stroke="#007F7F" x1="45.9766cm" y1="30.7031cm" x2="43.4505cm" y2="29.9479cm" />
<rect style="opacity:0.6;fill:#007F7F;stroke:none" width="3.33333cm" height="3.33333cm" x="41.6667cm" y="35cm" />
<line stroke="#007F7F" x1="46.5234cm" y1="36.5235cm" x2="43.5782cm" y2="36.8906cm" />
<rect style="opacity:0.6;fill:#007F7F;stroke:none" width="3.33333cm" height="3.33333cm" x="38.3333cm" y="38.3333cm" />
<line stroke="#007F7F" x1="40.5078cm" y1="43.3984cm" x2="40.0586cm" y2="40cm" />
<rect style="opacity:0.6;fill:#007F7F;stroke:none" width="3.33333cm" height="3.33333cm" x="38.3333cm" y="41.6667cm" />
<rect style="opacity:0.6;fill:#007F7F;stroke:none" width="3.33333cm" height="3.33333cm" x="41.6667cm" y="38.3333cm" />
<line stroke="#007F7F" x1="40.0586cm" y1="40cm" x2="42.8125cm" y2="38.9063cm" />
<line stroke="#007F7F" x1="40.0586cm" y1="40cm" x2="43.5782cm" y2="36.8906cm" />
<rect style="opacity:0.6;fill:#007F7F;stroke:none" width="3.33333cm" height="3.33333cm" x="35cm" y="38.3333cm" />
<line stroke="#007F7F" x1="40.0586cm" y1="40cm" x2="37.0312cm" y2="40.6446cm" />
<rect style="opacity:0.6;fill:#007F7F;stroke:none" width="3.33333cm" height="3.33333cm" x="38.3333cm" y="35cm" />
<line stroke="#007F7F" x1="40.0586cm" y1="40cm" x2="40.8281cm" y2="36.9375cm" />
<rect style="opacity:0.6;fill:#007F7F;stroke:none" width="3.33333cm" height="3.33333cm" x="35cm" y="35cm" />
<line stroke="#007F7F" x1="40.0586cm" y1="40cm" x2="36.7344cm" y2="36.4375cm" />
<line stroke="#007F7F" x1="42.8125cm" y1="38.9063cm" x2="43.5782cm" y2="36.8906cm" />
<line stroke="#007F7F" x1="42.8125cm" y1="38.9063cm" x2="40.8281cm" y2="36.9375cm" />
<rect style="opacity:0.6;fill:#007F7F;stroke:none" width="3.33333cm" height="3.33333cm" x="45cm" y="35cm" />
<line stroke="#007F7F" x1="43.5782cm" y1="36.8906cm" x2="40.8281cm" y2="36.9375cm" />
<rect style="opacity:0.6;fill:#007F7F;stroke:none" width="3.33333cm" height="3.33333cm" x="38.3333cm" y="31.6667cm" />
<line stroke="#007F7F" x1="43.5782cm" y1="36.8906cm" x2="39.6815cm" y2="33.3113cm" />
<rect style="opacity:0.6;fill:#007F7F;stroke:none" width="3.33333cm" height="3.33333cm" x="41.6667cm" y="31.6667cm" />
<line stroke="#007F7F" x1="43.5782cm" y1="36.8906cm" x2="42.9375cm" y2="33.4375cm" />
<line stroke="#007F7F" x1="36.4844cm" y1="42.5cm" x2="37.0312cm" y2="40.6446cm" />
<rect style="opacity:0.6;fill:#007F7F;stroke:none" width="3.33333cm" height="3.33333cm" x="35cm" y="41.6667cm" />
<line stroke="#007F7F" x1="37.0312cm" y1="40.6446cm" x2="40.8281cm" y2="36.9375cm" />
<line stroke="#007F7F" x1="37.0312cm" y1="40.6446cm" x2="36.7344cm" y2="36.4375cm" />
<line stroke="#007F7F" x1="40.8281cm" y1="36.9375cm" x2="36.7344cm" y2="36.4375cm" />
<rect style="opacity:0.6;fill:#007F7F;stroke:none" width="3.33333cm" height="3.33333cm" x="35cm" y="31.6667cm" />
<line stroke="#007F7F" x1="40.8281cm" y1="36.9375cm" x2="37.1354cm" y2="33.7239cm" />
<line stroke="#007F7F" x1="40.8281cm" y1="36.9375cm" x2="39.6815cm" y2="33.3113cm" />
<line stroke="#007F7F" x1="40.8281cm" y1="36.9375cm" x2="42.9375cm" y2="33.4375cm" />
<rect style="opacity:0.6;fill:#007F7F;stroke:none" width="3.33333cm" height="3.33333cm" x="31.6667cm" y="35cm" />
<line stroke="#007F7F" x1="36.7344cm" y1="36.4375cm" x2="34.8047cm" y2="36.875cm" />
<rect style="opacity:0.6;fill:#007F7F;stroke:none" width="3.33333cm" height="3.33333cm" x="31.6667cm" y="31.6667cm" />
<line stroke="#007F7F" x1="36.7344cm" y1="36.4375cm" x2="34.0235cm" y2="33.2227cm" />
<line stroke="#007F7F" x1="36.7344cm" y1="36.4375cm" x2="37.1354cm" y2="33.7239cm" />
<line stroke="#007F7F" x1="36.7344cm" y1="36.4375cm" x2="39.6815cm" y2="33.3113cm" />
<line stroke="#007F7F" x1="34.0235cm" y1="33.2227cm" x2="37.1354cm" y2="33.7239cm" />
<rect style="opacity:0.6;fill:#007F7F;stroke:none" width="3.33333cm" height="3.33333cm" x="35cm" y="28.3333cm" />
<line stroke="#007F7F" x1="34.0235cm" y1="33.2227cm" x2="36.7383cm" y2="30.2148cm" />
<rect style="opacity:0.6;fill:#007F7F;stroke:none" width="3.33333cm" height="3.33333cm" x="31.6667cm" y="28.3333cm" />
<line stroke="#007F7F" x1="34.0235cm" y1="33.2227cm" x2="33.6328cm" y2="31.3281cm" />
<rect style="opacity:0.6;fill:#007F7F;stroke:none" width="3.33333cm" height="3.33333cm" x="28.3333cm" y="31.6667cm" />
<line stroke="#007F7F" x1="34.0235cm" y1="33.2227cm" x2="30.8203cm" y2="32.4219cm" />
<line stroke="#007F7F" x1="37.1354cm" y1="33.7239cm" x2="39.6815cm" y2="33.3113cm" />
<rect style="opacity:0.6;fill:#007F7F;stroke:none" width="3.33333cm" height="3.33333cm" x="38.3333cm" y="28.3333cm" />
<line stroke="#007F7F" x1="37.1354cm" y1="33.7239cm" x2="39.7786cm" y2="30.2344cm" />
<line stroke="#007F7F" x1="37.1354cm" y1="33.7239cm" x2="36.7383cm" y2="30.2148cm" />
<line stroke="#007F7F" x1="39.6815cm" y1="33.3113cm" x2="42.9375cm" y2="33.4375cm" />
<line stroke="#007F7F" x1="39.6815cm" y1="33.3113cm" x2="39.7786cm" y2="30.2344cm" />
<line stroke="#007F7F" x1="39.6815cm" y1="33.3113cm" x2="43.4505cm" y2="29.9479cm" />
<line stroke="#007F7F" x1="39.6815cm" y1="33.3113cm" x2="36.7383cm" y2="30.2148cm" />
<line stroke="#007F7F" x1="42.9375cm" y1="33.4375cm" x2="39.7786cm" y2="30.2344cm" />
<line stroke="#007F7F" x1="42.9375cm" y1="33.4375cm" x2="43.4505cm" y2="29.9479cm" />
<line stroke="#007F7F" x1="39.7786cm" y1="30.2344cm" x2="43.4505cm" y2="29.9479cm" />
<rect style="opacity:0.6;fill:#007F7F;stroke:none" width="3.33333cm" height="3.33333cm" x="41.6667cm" y="25cm" />
<line stroke="#007F7F" x1="39.7786cm" y1="30.2344cm" x2="43.2552cm" y2="27.1875cm" />
<rect style="opacity:0.6;fill:#007F7F;stroke:none" width="3.33333cm" height="3.33333cm" x="38.3333cm" y="25cm" />
<line stroke="#007F7F" x1="39.7786cm" y1="30.2344cm" x2="38.6719cm" y2="27.461cm" />
<rect style="opacity:0.6;fill:#007F7F;stroke:none" width="3.33333cm" height="3.33333cm" x="35cm" y="25cm" />
<line stroke="#007F7F" x1="39.7786cm" y1="30.2344cm" x2="36.211cm" y2="27.6563cm" />
<line stroke="#007F7F" x1="39.7786cm" y1="30.2344cm" x2="36.7383cm" y2="30.2148cm" />
<rect style="opacity:0.6;fill:#007F7F;stroke:none" width="3.33333cm" height="3.33333cm" x="45cm" y="28.3333cm" />
<line stroke="#007F7F" x1="43.4505cm" y1="29.9479cm" x2="43.2552cm" y2="27.1875cm" />
<line stroke="#007F7F" x1="38.6719cm" y1="27.461cm" x2="36.211cm" y2="27.6563cm" />
<line stroke="#007F7F" x1="38.6719cm" y1="27.461cm" x2="36.7383cm" y2="30.2148cm" />
<line stroke="#007F7F" x1="36.211cm" y1="27.6563cm" x2="36.7383cm" y2="30.2148cm" />
<line stroke="#007F7F" x1="36.7383cm" y1="30.2148cm" x2="33.6328cm" y2="31.3281cm" />
<rect style="opacity:0.6;fill:#7F7F00;stroke:none" width="3.33333cm" height="3.33333cm" x="31.6667cm" y="25cm" />
<line stroke="#7F7F00" x1="31.4844cm" y1="28.75cm" x2="32.2656cm" y2="27.7344cm" />
<rect style="opacity:0.6;fill:#7F7F00;stroke:none" width="3.33333cm" height="3.33333cm" x="28.3333cm" y="28.3333cm" />
<rect style="opacity:0.6;fill:#7676ed;stroke:none" width="3.33333cm" height="3.33333cm" x="15cm" y="38.3333cm" />
<line stroke="#7676ed" x1="20.3255cm" y1="39.6094cm" x2="16.4453cm" y2="39.375cm" />
<rect style="opacity:0.6;fill:#7676ed;stroke:none" width="3.33333cm" height="3.33333cm" x="15cm" y="35cm" />
<line stroke="#7676ed" x1="20.3255cm" y1="39.6094cm" x2="16.7709cm" y2="36.2934cm" />
<rect style="opacity:0.6;fill:#7676ed;stroke:none" width="3.33333cm" height="3.33333cm" x="21.6667cm" y="38.3333cm" />
<line stroke="#7676ed" x1="20.3255cm" y1="39.6094cm" x2="23.0957cm" y2="39.9414cm" />
<rect style="opacity:0.6;fill:#7676ed;stroke:none" width="3.33333cm" height="3.33333cm" x="18.3333cm" y="35cm" />
<line stroke="#7676ed" x1="20.3255cm" y1="39.6094cm" x2="20.2678cm" y2="36.1719cm" />
<rect style="opacity:0.6;fill:#7676ed;stroke:none" width="3.33333cm" height="3.33333cm" x="21.6667cm" y="35cm" />
<line stroke="#7676ed" x1="20.3255cm" y1="39.6094cm" x2="23.2552cm" y2="37.0313cm" />
<rect style="opacity:0.6;fill:#7676ed;stroke:none" width="3.33333cm" height="3.33333cm" x="18.3333cm" y="38.3333cm" />
<line stroke="#7676ed" x1="16.4453cm" y1="39.375cm" x2="16.7709cm" y2="36.2934cm" />
<line stroke="#7676ed" x1="13.125cm" y1="38.6719cm" x2="16.7709cm" y2="36.2934cm" />
<rect style="opacity:0.6;fill:#7676ed;stroke:none" width="3.33333cm" height="3.33333cm" x="11.6667cm" y="31.6667cm" />
<line stroke="#7676ed" x1="13.6719cm" y1="36.0156cm" x2="13.9713cm" y2="34.0886cm" />
<line stroke="#7676ed" x1="13.6719cm" y1="36.0156cm" x2="16.7709cm" y2="36.2934cm" />
<rect style="opacity:0.6;fill:#7676ed;stroke:none" width="3.33333cm" height="3.33333cm" x="11.6667cm" y="35cm" />
<line stroke="#7676ed" x1="13.9713cm" y1="34.0886cm" x2="16.7709cm" y2="36.2934cm" />
<rect style="opacity:0.6;fill:#7676ed;stroke:none" width="3.33333cm" height="3.33333cm" x="15cm" y="31.6667cm" />
<line stroke="#7676ed" x1="13.9713cm" y1="34.0886cm" x2="17.5cm" y2="33.8058cm" />
<rect style="opacity:0.6;fill:#7676ed;stroke:none" width="3.33333cm" height="3.33333cm" x="15cm" y="28.3333cm" />
<line stroke="#7676ed" x1="13.9713cm" y1="34.0886cm" x2="17.4062cm" y2="30.625cm" />
<rect style="opacity:0.6;fill:#7676ed;stroke:none" width="3.33333cm" height="3.33333cm" x="11.6667cm" y="38.3333cm" />
<line stroke="#7676ed" x1="16.7709cm" y1="36.2934cm" x2="17.5cm" y2="33.8058cm" />
<line stroke="#7676ed" x1="16.7709cm" y1="36.2934cm" x2="20.2678cm" y2="36.1719cm" />
<rect style="opacity:0.6;fill:#7676ed;stroke:none" width="3.33333cm" height="3.33333cm" x="18.3333cm" y="31.6667cm" />
<line stroke="#7676ed" x1="16.7709cm" y1="36.2934cm" x2="19.3594cm" y2="33.7344cm" />
<line stroke="#7676ed" x1="17.5cm" y1="33.8058cm" x2="20.2678cm" y2="36.1719cm" />
<line stroke="#7676ed" x1="17.5cm" y1="33.8058cm" x2="19.3594cm" y2="33.7344cm" />
<line stroke="#7676ed" x1="17.5cm" y1="33.8058cm" x2="17.4062cm" y2="30.625cm" />
<rect style="opacity:0.6;fill:#7676ed;stroke:none" width="3.33333cm" height="3.33333cm" x="18.3333cm" y="28.3333cm" />
<line stroke="#7676ed" x1="17.5cm" y1="33.8058cm" x2="19.9609cm" y2="29.4531cm" />
<line stroke="#7676ed" x1="23.0957cm" y1="39.9414cm" x2="20.2678cm" y2="36.1719cm" />
<line stroke="#7676ed" x1="23.0957cm" y1="39.9414cm" x2="23.2552cm" y2="37.0313cm" />
<line stroke="#7676ed" x1="20.2678cm" y1="36.1719cm" x2="23.2552cm" y2="37.0313cm" />
<line stroke="#7676ed" x1="20.2678cm" y1="36.1719cm" x2="19.3594cm" y2="33.7344cm" />
<rect style="opacity:0.6;fill:#7676ed;stroke:none" width="3.33333cm" height="3.33333cm" x="21.6667cm" y="31.6667cm" />
<line stroke="#7676ed" x1="20.2678cm" y1="36.1719cm" x2="23.1406cm" y2="33.5156cm" />
<line stroke="#7676ed" x1="23.2552cm" y1="37.0313cm" x2="19.3594cm" y2="33.7344cm" />
<line stroke="#7676ed" x1="23.2552cm" y1="37.0313cm" x2="23.1406cm" y2="33.5156cm" />
<rect style="opacity:0.6;fill:#7676ed;stroke:none" width="3.33333cm" height="3.33333cm" x="25cm" y="31.6667cm" />
<line stroke="#7676ed" x1="23.2552cm" y1="37.0313cm" x2="25.8854cm" y2="33.7239cm" />
<line stroke="#7676ed" x1="19.3594cm" y1="33.7344cm" x2="17.4062cm" y2="30.625cm" />
<line stroke="#7676ed" x1="19.3594cm" y1="33.7344cm" x2="19.9609cm" y2="29.4531cm" />
<rect style="opacity:0.6;fill:#7676ed;stroke:none" width="3.33333cm" height="3.33333cm" x="21.6667cm" y="28.3333cm" />
<line stroke="#7676ed" x1="19.3594cm" y1="33.7344cm" x2="22.8281cm" y2="30.3438cm" />
<line stroke="#7676ed" x1="19.3594cm" y1="33.7344cm" x2="23.1406cm" y2="33.5156cm" />
<rect style="opacity:0.6;fill:#7676ed;stroke:none" width="3.33333cm" height="3.33333cm" x="15cm" y="25cm" />
<line stroke="#7676ed" x1="17.4062cm" y1="30.625cm" x2="16.276cm" y2="27.8906cm" />
<line stroke="#7676ed" x1="17.4062cm" y1="30.625cm" x2="19.9609cm" y2="29.4531cm" />
<line stroke="#7676ed" x1="16.276cm" y1="27.8906cm" x2="19.9609cm" y2="29.4531cm" />
<rect style="opacity:0.6;fill:#7676ed;stroke:none" width="3.33333cm" height="3.33333cm" x="18.3333cm" y="25cm" />
<line stroke="#7676ed" x1="19.9609cm" y1="29.4531cm" x2="20.9766cm" y2="27.2656cm" />
<line stroke="#7676ed" x1="19.9609cm" y1="29.4531cm" x2="22.8281cm" y2="30.3438cm" />
<line stroke="#7676ed" x1="19.9609cm" y1="29.4531cm" x2="23.1406cm" y2="33.5156cm" />
<line stroke="#7676ed" x1="20.9766cm" y1="27.2656cm" x2="22.8281cm" y2="30.3438cm" />
<line stroke="#7676ed" x1="22.8281cm" y1="30.3438cm" x2="23.1406cm" y2="33.5156cm" />
<line stroke="#7676ed" x1="22.8281cm" y1="30.3438cm" x2="25.8854cm" y2="33.7239cm" />
<line stroke="#7676ed" x1="23.1406cm" y1="33.5156cm" x2="25.8854cm" y2="33.7239cm" />
<circle fill="red" stroke-width="0.02cm"  cx="17.8906cm" cy="51.7969cm" r="0.1cm" />
<circle fill="red" stroke-width="0.02cm"  cx="17.4219cm" cy="52.3438cm" r="0.1cm" />
<circle fill="red" stroke-width="0.02cm"  cx="15.7031cm" cy="50.625cm" r="0.1cm" />
<circle fill="red" stroke-width="0.02cm"  cx="15.625cm" cy="50.7031cm" r="0.1cm" />
<circle fill="red" stroke-width="0.02cm"  cx="14.6094cm" cy="49.0625cm" r="0.1cm" />
<circle fill="red" stroke-width="0.02cm"  cx="13.8281cm" cy="49.375cm" r="0.1cm" />
<circle fill="red" stroke-width="0.02cm"  cx="13.4375cm" cy="47.9688cm" r="0.1cm" />
<circle fill="red" stroke-width="0.02cm"  cx="12.6562cm" cy="47.5781cm" r="0.1cm" />
<circle fill="red" stroke-width="0.02cm"  cx="11.1719cm" cy="46.0938cm" r="0.1cm" />
<circle fill="red" stroke-width="0.02cm"  cx="11.6406cm" cy="44.4531cm" r="0.1cm" />
<circle fill="red" stroke-width="0.02cm"  cx="11.7188cm" cy="43.6719cm" r="0.1cm" />
<circle fill="red" stroke-width="0.02cm"  cx="9.53125cm" cy="42.9688cm" r="0.1cm" />
<circle fill="red" stroke-width="0.02cm"  cx="9.4531cm" cy="41.25cm" r="0.1cm" />
<circle fill="red" stroke-width="0.02cm"  cx="10.3906cm" cy="40.8594cm" r="0.1cm" />
<circle fill="red" stroke-width="0.02cm"  cx="9.21875cm" cy="39.4531cm" r="0.1cm" />
<circle fill="red" stroke-width="0.02cm"  cx="8.67185cm" cy="38.6719cm" r="0.1cm" />
<circle fill="red" stroke-width="0.02cm"  cx="8.75cm" cy="36.7969cm" r="0.1cm" />
<circle fill="red" stroke-width="0.02cm"  cx="7.65625cm" cy="36.4844cm" r="0.1cm" />
<circle fill="red" stroke-width="0.02cm"  cx="8.75cm" cy="35.625cm" r="0.1cm" />
<circle fill="red" stroke-width="0.02cm"  cx="8.28125cm" cy="34.2969cm" r="0.1cm" />
<circle fill="red" stroke-width="0.02cm"  cx="9.2969cm" cy="33.5938cm" r="0.1cm" />
<circle fill="red" stroke-width="0.02cm"  cx="7.8906cm" cy="32.1094cm" r="0.1cm" />
<circle fill="red" stroke-width="0.02cm"  cx="8.125cm" cy="31.5625cm" r="0.1cm" />
<circle fill="red" stroke-width="0.02cm"  cx="9.7656cm" cy="31.5625cm" r="0.1cm" />
<circle fill="red" stroke-width="0.02cm"  cx="9.21875cm" cy="29.2969cm" r="0.1cm" />
<circle fill="red" stroke-width="0.02cm"  cx="8.59375cm" cy="29.1406cm" r="0.1cm" />
<circle fill="red" stroke-width="0.02cm"  cx="9.4531cm" cy="26.4844cm" r="0.1cm" />
<circle fill="red" stroke-width="0.02cm"  cx="9.84375cm" cy="26.3281cm" r="0.1cm" />
<circle fill="red" stroke-width="0.02cm"  cx="10.5469cm" cy="25.0781cm" r="0.1cm" />
<circle fill="red" stroke-width="0.02cm"  cx="9.53125cm" cy="24.0625cm" r="0.1cm" />
<circle fill="red" stroke-width="0.02cm"  cx="11.4844cm" cy="22.6563cm" r="0.1cm" />
<circle fill="red" stroke-width="0.02cm"  cx="10.8594cm" cy="21.7968cm" r="0.1cm" />
<circle fill="red" stroke-width="0.02cm"  cx="12.7344cm" cy="21.1719cm" r="0.1cm" />
<circle fill="red" stroke-width="0.02cm"  cx="12.4219cm" cy="20.1563cm" r="0.1cm" />
<circle fill="red" stroke-width="0.02cm"  cx="14.0625cm" cy="18.9843cm" r="0.1cm" />
<circle fill="red" stroke-width="0.02cm"  cx="14.1406cm" cy="17.5782cm" r="0.1cm" />
<circle fill="red" stroke-width="0.02cm"  cx="14.9219cm" cy="16.7969cm" r="0.1cm" />
<circle fill="red" stroke-width="0.02cm"  cx="15.8594cm" cy="17.3438cm" r="0.1cm" />
<circle fill="red" stroke-width="0.02cm"  cx="17.8906cm" cy="15.625cm" r="0.1cm" />
<circle fill="red" stroke-width="0.02cm"  cx="17.0312cm" cy="15.0781cm" r="0.1cm" />
<circle fill="red" stroke-width="0.02cm"  cx="18.9844cm" cy="13.6719cm" r="0.1cm" />
<circle fill="red" stroke-width="0.02cm"  cx="18.9844cm" cy="14.9219cm" r="0.1cm" />
<circle fill="red" stroke-width="0.02cm"  cx="20.7812cm" cy="12.7343cm" r="0.1cm" />
<circle fill="red" stroke-width="0.02cm"  cx="21.25cm" cy="13.9063cm" r="0.1cm" />
<circle fill="red" stroke-width="0.02cm"  cx="23.2812cm" cy="12.5cm" r="0.1cm" />
<circle fill="red" stroke-width="0.02cm"  cx="23.2812cm" cy="11.875cm" r="0.1cm" />
<circle fill="red" stroke-width="0.02cm"  cx="25.4688cm" cy="12.1875cm" r="0.1cm" />
<circle fill="red" stroke-width="0.02cm"  cx="25.4688cm" cy="11.1718cm" r="0.1cm" />
<circle fill="red" stroke-width="0.02cm"  cx="27.7344cm" cy="11.5625cm" r="0.1cm" />
<circle fill="red" stroke-width="0.02cm"  cx="27.8906cm" cy="10.0781cm" r="0.1cm" />
<circle fill="red" stroke-width="0.02cm"  cx="29.2969cm" cy="10.3125cm" r="0.1cm" />
<circle fill="red" stroke-width="0.02cm"  cx="29.7656cm" cy="11.875cm" r="0.1cm" />
<circle fill="red" stroke-width="0.02cm"  cx="31.3281cm" cy="11.4063cm" r="0.1cm" />
<circle fill="red" stroke-width="0.02cm"  cx="31.7188cm" cy="10.7813cm" r="0.1cm" />
<circle fill="red" stroke-width="0.02cm"  cx="33.9062cm" cy="10.7031cm" r="0.1cm" />
<circle fill="red" stroke-width="0.02cm"  cx="32.8906cm" cy="12.1875cm" r="0.1cm" />
<circle fill="red" stroke-width="0.02cm"  cx="36.1719cm" cy="12.7343cm" r="0.1cm" />
<circle fill="red" stroke-width="0.02cm"  cx="36.875cm" cy="12.3438cm" r="0.1cm" />
<circle fill="red" stroke-width="0.02cm"  cx="38.125cm" cy="12.9688cm" r="0.1cm" />
<circle fill="red" stroke-width="0.02cm"  cx="38.9844cm" cy="12.8125cm" r="0.1cm" />
<circle fill="red" stroke-width="0.02cm"  cx="40.2344cm" cy="13.9063cm" r="0.1cm" />
<circle fill="red" stroke-width="0.02cm"  cx="40.2344cm" cy="15.2344cm" r="0.1cm" />
<circle fill="red" stroke-width="0.02cm"  cx="42.0312cm" cy="15.4688cm" r="0.1cm" />
<circle fill="red" stroke-width="0.02cm"  cx="42.2657cm" cy="14.7656cm" r="0.1cm" />
<circle fill="red" stroke-width="0.02cm"  cx="43.4375cm" cy="17.2657cm" r="0.1cm" />
<circle fill="red" stroke-width="0.02cm"  cx="44.4532cm" cy="16.875cm" r="0.1cm" />
<circle fill="red" stroke-width="0.02cm"  cx="45.7032cm" cy="17.5cm" r="0.1cm" />
<circle fill="red" stroke-width="0.02cm"  cx="45.7032cm" cy="18.75cm" r="0.1cm" />
<circle fill="red" stroke-width="0.02cm"  cx="46.3281cm" cy="19.7656cm" r="0.1cm" />
<circle fill="red" stroke-width="0.02cm"  cx="47.2657cm" cy="19.7656cm" r="0.1cm" />
<circle fill="red" stroke-width="0.02cm"  cx="47.6562cm" cy="23.2813cm" r="0.1cm" />
<circle fill="red" stroke-width="0.02cm"  cx="48.125cm" cy="22.2657cm" r="0.1cm" />
<circle fill="red" stroke-width="0.02cm"  cx="48.5938cm" cy="24.1406cm" r="0.1cm" />
<circle fill="red" stroke-width="0.02cm"  cx="48.75cm" cy="24.8438cm" r="0.1cm" />
<circle fill="red" stroke-width="0.02cm"  cx="48.2031cm" cy="26.4063cm" r="0.1cm" />
<circle fill="red" stroke-width="0.02cm"  cx="49.2188cm" cy="27.1875cm" r="0.1cm" />
<circle fill="red" stroke-width="0.02cm"  cx="50.0782cm" cy="26.5625cm" r="0.1cm" />
<circle fill="red" stroke-width="0.02cm"  cx="49.4531cm" cy="29.5313cm" r="0.1cm" />
<circle fill="red" stroke-width="0.02cm"  cx="51.4062cm" cy="29.5313cm" r="0.1cm" />
<circle fill="red" stroke-width="0.02cm"  cx="50.1562cm" cy="31.7188cm" r="0.1cm" />
<circle fill="red" stroke-width="0.02cm"  cx="51.9531cm" cy="31.4844cm" r="0.1cm" />
<circle fill="red" stroke-width="0.02cm"  cx="51.5625cm" cy="33.75cm" r="0.1cm" />
<circle fill="red" stroke-width="0.02cm"  cx="50.625cm" cy="34.2188cm" r="0.1cm" />
<circle fill="red" stroke-width="0.02cm"  cx="50.9375cm" cy="36.0156cm" r="0.1cm" />
<circle fill="red" stroke-width="0.02cm"  cx="50cm" cy="36.6406cm" r="0.1cm" />
<circle fill="red" stroke-width="0.02cm"  cx="50.8594cm" cy="38.9844cm" r="0.1cm" />
<circle fill="red" stroke-width="0.02cm"  cx="49.7656cm" cy="38.8281cm" r="0.1cm" />
<circle fill="red" stroke-width="0.02cm"  cx="48.9843cm" cy="40.8594cm" r="0.1cm" />
<circle fill="red" stroke-width="0.02cm"  cx="50.3125cm" cy="41.0938cm" r="0.1cm" />
<circle fill="red" stroke-width="0.02cm"  cx="48.8282cm" cy="43.5938cm" r="0.1cm" />
<circle fill="red" stroke-width="0.02cm"  cx="50.2343cm" cy="43.4375cm" r="0.1cm" />
<circle fill="red" stroke-width="0.02cm"  cx="47.2657cm" cy="44.7656cm" r="0.1cm" />
<circle fill="red" stroke-width="0.02cm"  cx="47.9688cm" cy="46.7969cm" r="0.1cm" />
<circle fill="red" stroke-width="0.02cm"  cx="46.5625cm" cy="46.7969cm" r="0.1cm" />
<circle fill="red" stroke-width="0.02cm"  cx="46.875cm" cy="47.8125cm" r="0.1cm" />
<circle fill="red" stroke-width="0.02cm"  cx="45.625cm" cy="48.6719cm" r="0.1cm" />
<circle fill="red" stroke-width="0.02cm"  cx="45.625cm" cy="49.2188cm" r="0.1cm" />
<circle fill="red" stroke-width="0.02cm"  cx="43.4375cm" cy="50.3906cm" r="0.1cm" />
<circle fill="red" stroke-width="0.02cm"  cx="44.2968cm" cy="51.1718cm" r="0.1cm" />
<circle fill="red" stroke-width="0.02cm"  cx="41.7188cm" cy="52.1875cm" r="0.1cm" />
<circle fill="red" stroke-width="0.02cm"  cx="41.5625cm" cy="52.8125cm" r="0.1cm" />
<circle fill="red" stroke-width="0.02cm"  cx="40.625cm" cy="53.9844cm" r="0.1cm" />
<circle fill="red" stroke-width="0.02cm"  cx="40.1562cm" cy="53.2813cm" r="0.1cm" />
<circle fill="red" stroke-width="0.02cm"  cx="49.6875cm" cy="33.75cm" r="0.1cm" />
<circle fill="red" stroke-width="0.02cm"  cx="48.2812cm" cy="32.5cm" r="0.1cm" />
<circle fill="red" stroke-width="0.02cm"  cx="46.6406cm" cy="31.6406cm" r="0.1cm" />
<circle fill="red" stroke-width="0.02cm"  cx="45.8593cm" cy="33.9063cm" r="0.1cm" />
<circle fill="red" stroke-width="0.02cm"  cx="47.9688cm" cy="35.3906cm" r="0.1cm" />
<circle fill="red" stroke-width="0.02cm"  cx="47.1093cm" cy="38.5156cm" r="0.1cm" />
<circle fill="red" stroke-width="0.02cm"  cx="47.1875cm" cy="41.1719cm" r="0.1cm" />
<circle fill="red" stroke-width="0.02cm"  cx="45.0781cm" cy="37.6563cm" r="0.1cm" />
<circle fill="red" stroke-width="0.02cm"  cx="43.2031cm" cy="42.7344cm" r="0.1cm" />
<circle fill="red" stroke-width="0.02cm"  cx="41.5625cm" cy="42.8906cm" r="0.1cm" />
<circle fill="red" stroke-width="0.02cm"  cx="39.4532cm" cy="43.9063cm" r="0.1cm" />
<circle fill="red" stroke-width="0.02cm"  cx="41.25cm" cy="41.6406cm" r="0.1cm" />
<circle fill="red" stroke-width="0.02cm"  cx="42.8125cm" cy="38.9063cm" r="0.1cm" />
<circle fill="red" stroke-width="0.02cm"  cx="44.5312cm" cy="37.1094cm" r="0.1cm" />
<circle fill="red" stroke-width="0.02cm"  cx="43.9843cm" cy="36.7969cm" r="0.1cm" />
<circle fill="red" stroke-width="0.02cm"  cx="43.9843cm" cy="36.7188cm" r="0.1cm" />
<circle fill="red" stroke-width="0.02cm"  cx="36.4844cm" cy="42.5cm" r="0.1cm" />
<circle fill="red" stroke-width="0.02cm"  cx="36.0938cm" cy="41.5625cm" r="0.1cm" />
<circle fill="red" stroke-width="0.02cm"  cx="37.6562cm" cy="41.5625cm" r="0.1cm" />
<circle fill="red" stroke-width="0.02cm"  cx="38.6719cm" cy="41.5625cm" r="0.1cm" />
<circle fill="red" stroke-width="0.02cm"  cx="37.5782cm" cy="40.2344cm" r="0.1cm" />
<circle fill="red" stroke-width="0.02cm"  cx="36.7969cm" cy="39.2188cm" r="0.1cm" />
<circle fill="red" stroke-width="0.02cm"  cx="39.1407cm" cy="39.0625cm" r="0.1cm" />
<circle fill="red" stroke-width="0.02cm"  cx="39.5312cm" cy="40.5469cm" r="0.1cm" />
<circle fill="red" stroke-width="0.02cm"  cx="39.6093cm" cy="40.1563cm" r="0.1cm" />
<circle fill="red" stroke-width="0.02cm"  cx="40.3906cm" cy="39.5313cm" r="0.1cm" />
<circle fill="red" stroke-width="0.02cm"  cx="40.4688cm" cy="38.5938cm" r="0.1cm" />
<circle fill="red" stroke-width="0.02cm"  cx="41.4062cm" cy="38.9063cm" r="0.1cm" />
<circle fill="red" stroke-width="0.02cm"  cx="42.6562cm" cy="36.9531cm" r="0.1cm" />
<circle fill="red" stroke-width="0.02cm"  cx="42.7343cm" cy="36.875cm" r="0.1cm" />
<circle fill="red" stroke-width="0.02cm"  cx="41.5625cm" cy="37.2656cm" r="0.1cm" />
<circle fill="red" stroke-width="0.02cm"  cx="41.5625cm" cy="37.2656cm" r="0.1cm" />
<circle fill="red" stroke-width="0.02cm"  cx="40.5469cm" cy="36.9531cm" r="0.1cm" />
<circle fill="red" stroke-width="0.02cm"  cx="40.5469cm" cy="36.4063cm" r="0.1cm" />
<circle fill="red" stroke-width="0.02cm"  cx="39.9219cm" cy="36.7969cm" r="0.1cm" />
<circle fill="red" stroke-width="0.02cm"  cx="37.3438cm" cy="36.9531cm" r="0.1cm" />
<circle fill="red" stroke-width="0.02cm"  cx="37.8907cm" cy="36.4063cm" r="0.1cm" />
<circle fill="red" stroke-width="0.02cm"  cx="37.2656cm" cy="35.7813cm" r="0.1cm" />
<circle fill="red" stroke-width="0.02cm"  cx="35.8594cm" cy="37.0313cm" r="0.1cm" />
<circle fill="red" stroke-width="0.02cm"  cx="34.6875cm" cy="37.8125cm" r="0.1cm" />
<circle fill="red" stroke-width="0.02cm"  cx="32.9688cm" cy="39.4531cm" r="0.1cm" />
<circle fill="red" stroke-width="0.02cm"  cx="32.0312cm" cy="39.2188cm" r="0.1cm" />
<circle fill="red" stroke-width="0.02cm"  cx="35cm" cy="33.9844cm" r="0.1cm" />
<circle fill="red" stroke-width="0.02cm"  cx="34.9219cm" cy="33.6719cm" r="0.1cm" />
<circle fill="red" stroke-width="0.02cm"  cx="35.3125cm" cy="36.0156cm" r="0.1cm" />
<circle fill="red" stroke-width="0.02cm"  cx="34.9219cm" cy="35.9375cm" r="0.1cm" />
<circle fill="red" stroke-width="0.02cm"  cx="37.7343cm" cy="34.7656cm" r="0.1cm" />
<circle fill="red" stroke-width="0.02cm"  cx="38.2032cm" cy="34.5313cm" r="0.1cm" />
<circle fill="red" stroke-width="0.02cm"  cx="39.0625cm" cy="34.5313cm" r="0.1cm" />
<circle fill="red" stroke-width="0.02cm"  cx="39.6093cm" cy="34.4531cm" r="0.1cm" />
<circle fill="red" stroke-width="0.02cm"  cx="40.1562cm" cy="33.5938cm" r="0.1cm" />
<circle fill="red" stroke-width="0.02cm"  cx="40.5469cm" cy="33.3594cm" r="0.1cm" />
<circle fill="red" stroke-width="0.02cm"  cx="41.25cm" cy="33.3594cm" r="0.1cm" />
<circle fill="red" stroke-width="0.02cm"  cx="41.3282cm" cy="33.2813cm" r="0.1cm" />
<circle fill="red" stroke-width="0.02cm"  cx="41.3282cm" cy="34.1406cm" r="0.1cm" />
<circle fill="red" stroke-width="0.02cm"  cx="42.1094cm" cy="34.375cm" r="0.1cm" />
<circle fill="red" stroke-width="0.02cm"  cx="43.125cm" cy="34.4531cm" r="0.1cm" />
<circle fill="red" stroke-width="0.02cm"  cx="43.4375cm" cy="33.3594cm" r="0.1cm" />
<circle fill="red" stroke-width="0.02cm"  cx="42.4218cm" cy="32.8125cm" r="0.1cm" />
<circle fill="red" stroke-width="0.02cm"  cx="41.4062cm" cy="31.4063cm" r="0.1cm" />
<circle fill="red" stroke-width="0.02cm"  cx="43.3594cm" cy="31.6406cm" r="0.1cm" />
<circle fill="red" stroke-width="0.02cm"  cx="43.5938cm" cy="32.1875cm" r="0.1cm" />
<circle fill="red" stroke-width="0.02cm"  cx="44.4532cm" cy="31.1719cm" r="0.1cm" />
<circle fill="red" stroke-width="0.02cm"  cx="45.3125cm" cy="29.7656cm" r="0.1cm" />
<circle fill="red" stroke-width="0.02cm"  cx="44.8438cm" cy="29.7656cm" r="0.1cm" />
<circle fill="red" stroke-width="0.02cm"  cx="44.2188cm" cy="29.4531cm" r="0.1cm" />
<circle fill="red" stroke-width="0.02cm"  cx="44.1407cm" cy="27.9688cm" r="0.1cm" />
<circle fill="red" stroke-width="0.02cm"  cx="42.9688cm" cy="27.6563cm" r="0.1cm" />
<circle fill="red" stroke-width="0.02cm"  cx="42.6562cm" cy="25.9375cm" r="0.1cm" />
<circle fill="red" stroke-width="0.02cm"  cx="42.1094cm" cy="29.2188cm" r="0.1cm" />
<circle fill="red" stroke-width="0.02cm"  cx="41.7188cm" cy="28.4375cm" r="0.1cm" />
<circle fill="red" stroke-width="0.02cm"  cx="40.7812cm" cy="28.75cm" r="0.1cm" />
<circle fill="red" stroke-width="0.02cm"  cx="39.5312cm" cy="28.75cm" r="0.1cm" />
<circle fill="red" stroke-width="0.02cm"  cx="38.9844cm" cy="27.3438cm" r="0.1cm" />
<circle fill="red" stroke-width="0.02cm"  cx="38.3594cm" cy="27.5781cm" r="0.1cm" />
<circle fill="red" stroke-width="0.02cm"  cx="37.1094cm" cy="27.8906cm" r="0.1cm" />
<circle fill="red" stroke-width="0.02cm"  cx="38.2812cm" cy="28.9063cm" r="0.1cm" />
<circle fill="red" stroke-width="0.02cm"  cx="39.2188cm" cy="30cm" r="0.1cm" />
<circle fill="red" stroke-width="0.02cm"  cx="38.9062cm" cy="33.4375cm" r="0.1cm" />
<circle fill="red" stroke-width="0.02cm"  cx="38.3594cm" cy="33.4375cm" r="0.1cm" />
<circle fill="red" stroke-width="0.02cm"  cx="38.4375cm" cy="32.8906cm" r="0.1cm" />
<circle fill="red" stroke-width="0.02cm"  cx="39.2188cm" cy="32.6563cm" r="0.1cm" />
<circle fill="red" stroke-width="0.02cm"  cx="38.3594cm" cy="32.0313cm" r="0.1cm" />
<circle fill="red" stroke-width="0.02cm"  cx="39.2968cm" cy="31.875cm" r="0.1cm" />
<circle fill="red" stroke-width="0.02cm"  cx="39.2968cm" cy="31.4844cm" r="0.1cm" />
<circle fill="red" stroke-width="0.02cm"  cx="38.4375cm" cy="31.0156cm" r="0.1cm" />
<circle fill="red" stroke-width="0.02cm"  cx="37.2656cm" cy="30.625cm" r="0.1cm" />
<circle fill="red" stroke-width="0.02cm"  cx="36.0156cm" cy="30.1563cm" r="0.1cm" />
<circle fill="red" stroke-width="0.02cm"  cx="35.3125cm" cy="27.4219cm" r="0.1cm" />
<circle fill="red" stroke-width="0.02cm"  cx="35.4688cm" cy="31.875cm" r="0.1cm" />
<circle fill="red" stroke-width="0.02cm"  cx="35.3906cm" cy="31.1719cm" r="0.1cm" />
<circle fill="red" stroke-width="0.02cm"  cx="34.0625cm" cy="32.0313cm" r="0.1cm" />
<circle fill="red" stroke-width="0.02cm"  cx="33.6719cm" cy="31.4844cm" r="0.1cm" />
<circle fill="red" stroke-width="0.02cm"  cx="33.5938cm" cy="31.1719cm" r="0.1cm" />
<circle fill="red" stroke-width="0.02cm"  cx="31.4844cm" cy="28.75cm" r="0.1cm" />
<circle fill="red" stroke-width="0.02cm"  cx="32.2656cm" cy="27.7344cm" r="0.1cm" />
<circle fill="red" stroke-width="0.02cm"  cx="32.1094cm" cy="33.2031cm" r="0.1cm" />
<circle fill="red" stroke-width="0.02cm"  cx="31.0938cm" cy="32.4219cm" r="0.1cm" />
<circle fill="red" stroke-width="0.02cm"  cx="30.5469cm" cy="32.4219cm" r="0.1cm" />
<circle fill="red" stroke-width="0.02cm"  cx="19.7656cm" cy="45.3906cm" r="0.1cm" />
<circle fill="red" stroke-width="0.02cm"  cx="16.0938cm" cy="43.9844cm" r="0.1cm" />
<circle fill="red" stroke-width="0.02cm"  cx="18.6719cm" cy="40.625cm" r="0.1cm" />
<circle fill="red" stroke-width="0.02cm"  cx="15.2344cm" cy="40.3125cm" r="0.1cm" />
<circle fill="red" stroke-width="0.02cm"  cx="13.8281cm" cy="38.8281cm" r="0.1cm" />
<circle fill="red" stroke-width="0.02cm"  cx="12.4219cm" cy="38.5156cm" r="0.1cm" />
<circle fill="red" stroke-width="0.02cm"  cx="13.6719cm" cy="36.0156cm" r="0.1cm" />
<circle fill="red" stroke-width="0.02cm"  cx="12.8906cm" cy="34.8438cm" r="0.1cm" />
<circle fill="red" stroke-width="0.02cm"  cx="13.5156cm" cy="34.8438cm" r="0.1cm" />
<circle fill="red" stroke-width="0.02cm"  cx="13.75cm" cy="33.3594cm" r="0.1cm" />
<circle fill="red" stroke-width="0.02cm"  cx="14.375cm" cy="33.0469cm" r="0.1cm" />
<circle fill="red" stroke-width="0.02cm"  cx="14.375cm" cy="34.2188cm" r="0.1cm" />
<circle fill="red" stroke-width="0.02cm"  cx="14.9219cm" cy="34.2188cm" r="0.1cm" />
<circle fill="red" stroke-width="0.02cm"  cx="15.2344cm" cy="35.7813cm" r="0.1cm" />
<circle fill="red" stroke-width="0.02cm"  cx="15.3906cm" cy="36.4844cm" r="0.1cm" />
<circle fill="red" stroke-width="0.02cm"  cx="16.1719cm" cy="36.1719cm" r="0.1cm" />
<circle fill="red" stroke-width="0.02cm"  cx="16.0156cm" cy="35.3125cm" r="0.1cm" />
<circle fill="red" stroke-width="0.02cm"  cx="16.5625cm" cy="34.6875cm" r="0.1cm" />
<circle fill="red" stroke-width="0.02cm"  cx="16.9531cm" cy="34.6875cm" r="0.1cm" />
<circle fill="red" stroke-width="0.02cm"  cx="17.3438cm" cy="34.7656cm" r="0.1cm" />
<circle fill="red" stroke-width="0.02cm"  cx="17.0312cm" cy="35.7031cm" r="0.1cm" />
<circle fill="red" stroke-width="0.02cm"  cx="18.0469cm" cy="36.1719cm" r="0.1cm" />
<circle fill="red" stroke-width="0.02cm"  cx="17.7344cm" cy="36.6406cm" r="0.1cm" />
<circle fill="red" stroke-width="0.02cm"  cx="17.5781cm" cy="36.875cm" r="0.1cm" />
<circle fill="red" stroke-width="0.02cm"  cx="17.7344cm" cy="37.5cm" r="0.1cm" />
<circle fill="red" stroke-width="0.02cm"  cx="17.6562cm" cy="38.4375cm" r="0.1cm" />
<circle fill="red" stroke-width="0.02cm"  cx="19.8438cm" cy="39.375cm" r="0.1cm" />
<circle fill="red" stroke-width="0.02cm"  cx="21.0938cm" cy="40.2344cm" r="0.1cm" />
<circle fill="red" stroke-width="0.02cm"  cx="21.4062cm" cy="40.3125cm" r="0.1cm" />
<circle fill="red" stroke-width="0.02cm"  cx="22.1094cm" cy="41.3281cm" r="0.1cm" />
<circle fill="red" stroke-width="0.02cm"  cx="22.8125cm" cy="40.625cm" r="0.1cm" />
<circle fill="red" stroke-width="0.02cm"  cx="24.375cm" cy="40.625cm" r="0.1cm" />
<circle fill="red" stroke-width="0.02cm"  cx="24.1406cm" cy="40.2344cm" r="0.1cm" />
<circle fill="red" stroke-width="0.02cm"  cx="23.125cm" cy="39.7656cm" r="0.1cm" />
<circle fill="red" stroke-width="0.02cm"  cx="22.3438cm" cy="39.2969cm" r="0.1cm" />
<circle fill="red" stroke-width="0.02cm"  cx="22.5cm" cy="38.9844cm" r="0.1cm" />
<circle fill="red" stroke-width="0.02cm"  cx="23.3594cm" cy="38.6719cm" r="0.1cm" />
<circle fill="red" stroke-width="0.02cm"  cx="20.8594cm" cy="38.75cm" r="0.1cm" />
<circle fill="red" stroke-width="0.02cm"  cx="20.7031cm" cy="38.2813cm" r="0.1cm" />
<circle fill="red" stroke-width="0.02cm"  cx="20.0781cm" cy="38.3594cm" r="0.1cm" />
<circle fill="red" stroke-width="0.02cm"  cx="24.4531cm" cy="38.2031cm" r="0.1cm" />
<circle fill="red" stroke-width="0.02cm"  cx="23.2031cm" cy="37.5cm" r="0.1cm" />
<circle fill="red" stroke-width="0.02cm"  cx="21.7969cm" cy="37.7344cm" r="0.1cm" />
<circle fill="red" stroke-width="0.02cm"  cx="21.7969cm" cy="37.0313cm" r="0.1cm" />
<circle fill="red" stroke-width="0.02cm"  cx="20.5469cm" cy="36.5625cm" r="0.1cm" />
<circle fill="red" stroke-width="0.02cm"  cx="20.9375cm" cy="36.4063cm" r="0.1cm" />
<circle fill="red" stroke-width="0.02cm"  cx="21.0156cm" cy="35.4688cm" r="0.1cm" />
<circle fill="red" stroke-width="0.02cm"  cx="19.2188cm" cy="35.7031cm" r="0.1cm" />
<circle fill="red" stroke-width="0.02cm"  cx="19.2969cm" cy="35.4688cm" r="0.1cm" />
<circle fill="red" stroke-width="0.02cm"  cx="17.8906cm" cy="34.0625cm" r="0.1cm" />
<circle fill="red" stroke-width="0.02cm"  cx="20.1562cm" cy="35.3125cm" r="0.1cm" />
<circle fill="red" stroke-width="0.02cm"  cx="19.8438cm" cy="34.4531cm" r="0.1cm" />
<circle fill="red" stroke-width="0.02cm"  cx="20.1562cm" cy="33.75cm" r="0.1cm" />
<circle fill="red" stroke-width="0.02cm"  cx="19.2969cm" cy="34.375cm" r="0.1cm" />
<circle fill="red" stroke-width="0.02cm"  cx="18.9844cm" cy="33.9063cm" r="0.1cm" />
<circle fill="red" stroke-width="0.02cm"  cx="18.2031cm" cy="33.4375cm" r="0.1cm" />
<circle fill="red" stroke-width="0.02cm"  cx="17.5781cm" cy="32.8125cm" r="0.1cm" />
<circle fill="red" stroke-width="0.02cm"  cx="17.9688cm" cy="32.1875cm" r="0.1cm" />
<circle fill="red" stroke-width="0.02cm"  cx="18.5156cm" cy="32.1875cm" r="0.1cm" />
<circle fill="red" stroke-width="0.02cm"  cx="17.8906cm" cy="31.1719cm" r="0.1cm" />
<circle fill="red" stroke-width="0.02cm"  cx="17.5781cm" cy="30.8594cm" r="0.1cm" />
<circle fill="red" stroke-width="0.02cm"  cx="17.5781cm" cy="30.7031cm" r="0.1cm" />
<circle fill="red" stroke-width="0.02cm"  cx="16.7969cm" cy="30.7031cm" r="0.1cm" />
<circle fill="red" stroke-width="0.02cm"  cx="17.1875cm" cy="29.6875cm" r="0.1cm" />
<circle fill="red" stroke-width="0.02cm"  cx="11.9531cm" cy="30cm" r="0.1cm" />
<circle fill="red" stroke-width="0.02cm"  cx="16.0156cm" cy="28.2813cm" r="0.1cm" />
<circle fill="red" stroke-width="0.02cm"  cx="15.8594cm" cy="27.6563cm" r="0.1cm" />
<circle fill="red" stroke-width="0.02cm"  cx="16.9531cm" cy="27.7344cm" r="0.1cm" />
<circle fill="red" stroke-width="0.02cm"  cx="16.4062cm" cy="24.1406cm" r="0.1cm" />
<circle fill="red" stroke-width="0.02cm"  cx="18.5938cm" cy="29.0625cm" r="0.1cm" />
<circle fill="red" stroke-width="0.02cm"  cx="19.375cm" cy="28.9844cm" r="0.1cm" />
<circle fill="red" stroke-width="0.02cm"  cx="20.9375cm" cy="28.2813cm" r="0.1cm" />
<circle fill="red" stroke-width="0.02cm"  cx="21.4844cm" cy="28.3594cm" r="0.1cm" />
<circle fill="red" stroke-width="0.02cm"  cx="22.4219cm" cy="28.3594cm" r="0.1cm" />
<circle fill="red" stroke-width="0.02cm"  cx="22.5781cm" cy="26.0938cm" r="0.1cm" />
<circle fill="red" stroke-width="0.02cm"  cx="21.0156cm" cy="26.25cm" r="0.1cm" />
<circle fill="red" stroke-width="0.02cm"  cx="20.3906cm" cy="31.4063cm" r="0.1cm" />
<circle fill="red" stroke-width="0.02cm"  cx="21.7969cm" cy="31.0938cm" r="0.1cm" />
<circle fill="red" stroke-width="0.02cm"  cx="22.5cm" cy="31.0156cm" r="0.1cm" />
<circle fill="red" stroke-width="0.02cm"  cx="22.5781cm" cy="30.3125cm" r="0.1cm" />
<circle fill="red" stroke-width="0.02cm"  cx="21.7969cm" cy="34.6875cm" r="0.1cm" />
<circle fill="red" stroke-width="0.02cm"  cx="21.7969cm" cy="33.5938cm" r="0.1cm" />
<circle fill="red" stroke-width="0.02cm"  cx="21.7969cm" cy="33.0469cm" r="0.1cm" />
<circle fill="red" stroke-width="0.02cm"  cx="22.2656cm" cy="33.4375cm" r="0.1cm" />
<circle fill="red" stroke-width="0.02cm"  cx="22.9688cm" cy="33.2031cm" r="0.1cm" />
<circle fill="red" stroke-width="0.02cm"  cx="23.3594cm" cy="33.6719cm" r="0.1cm" />
<circle fill="red" stroke-width="0.02cm"  cx="24.1406cm" cy="34.6094cm" r="0.1cm" />
<circle fill="red" stroke-width="0.02cm"  cx="24.375cm" cy="34.375cm" r="0.1cm" />
<circle fill="red" stroke-width="0.02cm"  cx="25.0781cm" cy="34.375cm" r="0.1cm" />
<circle fill="red" stroke-width="0.02cm"  cx="24.5312cm" cy="35.3906cm" r="0.1cm" />
<circle fill="red" stroke-width="0.02cm"  cx="23.75cm" cy="36.3281cm" r="0.1cm" />
<circle fill="red" stroke-width="0.02cm"  cx="26.25cm" cy="34.4531cm" r="0.1cm" />
<circle fill="red" stroke-width="0.02cm"  cx="28.2812cm" cy="35.3125cm" r="0.1cm" />
<circle fill="red" stroke-width="0.02cm"  cx="27.6562cm" cy="31.4844cm" r="0.1cm" />
<circle fill="red" stroke-width="0.02cm"  cx="26.3281cm" cy="32.3438cm" r="0.1cm" />
<circle fill="red" stroke-width="0.02cm"  cx="24.4531cm" cy="32.6563cm" r="0.1cm" />
<circle fill="red" stroke-width="0.02cm"  cx="24.4531cm" cy="31.875cm" r="0.1cm" />
<circle fill="red" stroke-width="0.02cm"  cx="24.8438cm" cy="30.9375cm" r="0.1cm" />
</g>
</svg>