<?xml version="1.0" standalone="no"?>
<svg width="60cm" height="60cm" version="1.1"
xmlns="http://www.w3.org/2000/svg">
<desc>Graph bi-dimensional </desc>
<rect x="5cm" y="5cm" width="50cm" height="50cm" fill="none" stroke="black" stroke-width="0.1cm" />
<text x="5cm" y="57cm" font-family="Times New Roman" font-size="1.5cm" fill="black">File Name: plot.svg</text>
<text x="5cm" y="59cm" font-family="Times New Roman" font-size="1.5cm" fill="black">Epsilon: 50 </text>
<g stroke="gray" stroke-width="0.025cm">
<line x1="6cm" y1="5cm" x2="6cm" y2="55cm" />
<line y1="6cm" x1="5cm" y2="6cm" x2="55cm" />
<line x1="7cm" y1="5cm" x2="7cm" y2="55cm" />
<line y1="7cm" x1="5cm" y2="7cm" x2="55cm" />
<line x1="8cm" y1="5cm" x2="8cm" y2="55cm" />
<line y1="8cm" x1="5cm" y2="8cm" x2="55cm" />
<line x1="9cm" y1="5cm" x2="9cm" y2="55cm" />
<line y1="9cm" x1="5cm" y2="9cm" x2="55cm" />
<line x1="10cm" y1="5cm" x2="10cm" y2="55cm" />
<line y1="10cm" x1="5cm" y2="10cm" x2="55cm" />
<line x1="11cm" y1="5cm" x2="11cm" y2="55cm" />
<line y1="11cm" x1="5cm" y2="11cm" x2="55cm" />
<line x1="12cm" y1="5cm" x2="12cm" y2="55cm" />
<line y1="12cm" x1="5cm" y2="12cm" x2="55cm" />
<line x1="13cm" y1="5cm" x2="13cm" y2="55cm" />
<line y1="13cm" x1="5cm" y2="13cm" x2="55cm" />
<line x1="14cm" y1="5cm" x2="14cm" y2="55cm" />
<line y1="14cm" x1="5cm" y2="14cm" x2="55cm" />
<line x1="15cm" y1="5cm" x2="15cm" y2="55cm" />
<line y1="15cm" x1="5cm" y2="15cm" x2="55cm" />
<line x1="16cm" y1="5cm" x2="16cm" y2="55cm" />
<line y1="16cm" x1="5cm" y2="16cm" x2="55cm" />
<line x1="17cm" y1="5cm" x2="17cm" y2="55cm" />
<line y1="17cm" x1="5cm" y2="17cm" x2="55cm" />
<line x1="18cm" y1="5cm" x2="18cm" y2="55cm" />
<line y1="18cm" x1="5cm" y2="18cm" x2="55cm" />
<line x1="19cm" y1="5cm" x2="19cm" y2="55cm" />
<line y1="19cm" x1="5cm" y2="19cm" x2="55cm" />
<line x1="20cm" y1="5cm" x2="20cm" y2="55cm" />
<line y1="20cm" x1="5cm" y2="20cm" x2="55cm" />
<line x1="21cm" y1="5cm" x2="21cm" y2="55cm" />
<line y1="21cm" x1="5cm" y2="21cm" x2="55cm" />
<line x1="22cm" y1="5cm" x2="22cm" y2="55cm" />
<line y1="22cm" x1="5cm" y2="22cm" x2="55cm" />
<line x1="23cm" y1="5cm" x2="23cm" y2="55cm" />
<line y1="23cm" x1="5cm" y2="23cm" x2="55cm" />
<line x1="24cm" y1="5cm" x2="24cm" y2="55cm" />
<line y1="24cm" x1="5cm" y2="24cm" x2="55cm" />
<line x1="25cm" y1="5cm" x2="25cm" y2="55cm" />
<line y1="25cm" x1="5cm" y2="25cm" x2="55cm" />
<line x1="26cm" y1="5cm" x2="26cm" y2="55cm" />
<line y1="26cm" x1="5cm" y2="26cm" x2="55cm" />
<line x1="27cm" y1="5cm" x2="27cm" y2="55cm" />
<line y1="27cm" x1="5cm" y2="27cm" x2="55cm" />
<line x1="28cm" y1="5cm" x2="28cm" y2="55cm" />
<line y1="28cm" x1="5cm" y2="28cm" x2="55cm" />
<line x1="29cm" y1="5cm" x2="29cm" y2="55cm" />
<line y1="29cm" x1="5cm" y2="29cm" x2="55cm" />
<line x1="30cm" y1="5cm" x2="30cm" y2="55cm" />
<line y1="30cm" x1="5cm" y2="30cm" x2="55cm" />
<line x1="31cm" y1="5cm" x2="31cm" y2="55cm" />
<line y1="31cm" x1="5cm" y2="31cm" x2="55cm" />
<line x1="32cm" y1="5cm" x2="32cm" y2="55cm" />
<line y1="32cm" x1="5cm" y2="32cm" x2="55cm" />
<line x1="33cm" y1="5cm" x2="33cm" y2="55cm" />
<line y1="33cm" x1="5cm" y2="33cm" x2="55cm" />
<line x1="34cm" y1="5cm" x2="34cm" y2="55cm" />
<line y1="34cm" x1="5cm" y2="34cm" x2="55cm" />
<line x1="35cm" y1="5cm" x2="35cm" y2="55cm" />
<line y1="35cm" x1="5cm" y2="35cm" x2="55cm" />
<line x1="36cm" y1="5cm" x2="36cm" y2="55cm" />
<line y1="36cm" x1="5cm" y2="36cm" x2="55cm" />
<line x1="37cm" y1="5cm" x2="37cm" y2="55cm" />
<line y1="37cm" x1="5cm" y2="37cm" x2="55cm" />
<line x1="38cm" y1="5cm" x2="38cm" y2="55cm" />
<line y1="38cm" x1="5cm" y2="38cm" x2="55cm" />
<line x1="39cm" y1="5cm" x2="39cm" y2="55cm" />
<line y1="39cm" x1="5cm" y2="39cm" x2="55cm" />
<line x1="40cm" y1="5cm" x2="40cm" y2="55cm" />
<line y1="40cm" x1="5cm" y2="40cm" x2="55cm" />
<line x1="41cm" y1="5cm" x2="41cm" y2="55cm" />
<line y1="41cm" x1="5cm" y2="41cm" x2="55cm" />
<line x1="42cm" y1="5cm" x2="42cm" y2="55cm" />
<line y1="42cm" x1="5cm" y2="42cm" x2="55cm" />
<line x1="43cm" y1="5cm" x2="43cm" y2="55cm" />
<line y1="43cm" x1="5cm" y2="43cm" x2="55cm" />
<line x1="44cm" y1="5cm" x2="44cm" y2="55cm" />
<line y1="44cm" x1="5cm" y2="44cm" x2="55cm" />
<line x1="45cm" y1="5cm" x2="45cm" y2="55cm" />
<line y1="45cm" x1="5cm" y2="45cm" x2="55cm" />
<line x1="46cm" y1="5cm" x2="46cm" y2="55cm" />
<line y1="46cm" x1="5cm" y2="46cm" x2="55cm" />
<line x1="47cm" y1="5cm" x2="47cm" y2="55cm" />
<line y1="47cm" x1="5cm" y2="47cm" x2="55cm" />
<line x1="48cm" y1="5cm" x2="48cm" y2="55cm" />
<line y1="48cm" x1="5cm" y2="48cm" x2="55cm" />
<line x1="49cm" y1="5cm" x2="49cm" y2="55cm" />
<line y1="49cm" x1="5cm" y2="49cm" x2="55cm" />
<line x1="50cm" y1="5cm" x2="50cm" y2="55cm" />
<line y1="50cm" x1="5cm" y2="50cm" x2="55cm" />
<line x1="51cm" y1="5cm" x2="51cm" y2="55cm" />
<line y1="51cm" x1="5cm" y2="51cm" x2="55cm" />
<line x1="52cm" y1="5cm" x2="52cm" y2="55cm" />
<line y1="52cm" x1="5cm" y2="52cm" x2="55cm" />
<line x1="53cm" y1="5cm" x2="53cm" y2="55cm" />
<line y1="53cm" x1="5cm" y2="53cm" x2="55cm" />
<line x1="54cm" y1="5cm" x2="54cm" y2="55cm" />
<line y1="54cm" x1="5cm" y2="54cm" x2="55cm" />
</g>
<g stroke="black" stroke-width="0.09cm">
</g>
<rect style="opacity:.5;fill:#6d6d6d;stroke:none" width="1cm" height="1cm" x="8cm" y="54cm" />
<rect style="opacity:.5;fill:#444444;stroke:none" width="1cm" height="1cm" x="7cm" y="54cm" />
<rect style="opacity:.5;fill:#757575;stroke:none" width="1cm" height="1cm" x="8cm" y="52cm" />
<rect style="opacity:.5;fill:#000;stroke:none" width="1cm" height="1cm" x="6cm" y="54cm" />
<rect style="opacity:.5;fill:#3f3f3f;stroke:none" width="1cm" height="1cm" x="5cm" y="54cm" />
<rect style="opacity:.5;fill:#6b6b6b;stroke:none" width="1cm" height="1cm" x="8cm" y="53cm" />
<rect style="opacity:.5;fill:#616161;stroke:none" width="1cm" height="1cm" x="7cm" y="53cm" />
<rect style="opacity:.5;fill:#7c7c7c;stroke:none" width="1cm" height="1cm" x="11cm" y="46cm" />
<rect style="opacity:.5;fill:#7d7d7d;stroke:none" width="1cm" height="1cm" x="10cm" y="51cm" />
<rect style="opacity:.5;fill:#787878;stroke:none" width="1cm" height="1cm" x="9cm" y="54cm" />
<rect style="opacity:.5;fill:#7c7c7c;stroke:none" width="1cm" height="1cm" x="10cm" y="53cm" />
<rect style="opacity:.5;fill:#7e7e7e;stroke:none" width="1cm" height="1cm" x="18cm" y="44cm" />
<rect style="opacity:.5;fill:#7d7d7d;stroke:none" width="1cm" height="1cm" x="9cm" y="50cm" />
<rect style="opacity:.5;fill:#777777;stroke:none" width="1cm" height="1cm" x="7cm" y="52cm" />
<rect style="opacity:.5;fill:#7e7e7e;stroke:none" width="1cm" height="1cm" x="22cm" y="45cm" />
<rect style="opacity:.5;fill:#787878;stroke:none" width="1cm" height="1cm" x="9cm" y="53cm" />
<rect style="opacity:.5;fill:#7e7e7e;stroke:none" width="1cm" height="1cm" x="17cm" y="46cm" />
<rect style="opacity:.5;fill:#7e7e7e;stroke:none" width="1cm" height="1cm" x="25cm" y="46cm" />
<rect style="opacity:.5;fill:#7a7a7a;stroke:none" width="1cm" height="1cm" x="8cm" y="51cm" />
<rect style="opacity:.5;fill:#7e7e7e;stroke:none" width="1cm" height="1cm" x="10cm" y="49cm" />
<rect style="opacity:.5;fill:#7b7b7b;stroke:none" width="1cm" height="1cm" x="9cm" y="51cm" />
<rect style="opacity:.5;fill:#7e7e7e;stroke:none" width="1cm" height="1cm" x="14cm" y="50cm" />
<rect style="opacity:.5;fill:#7e7e7e;stroke:none" width="1cm" height="1cm" x="15cm" y="47cm" />
<rect style="opacity:.5;fill:#7c7c7c;stroke:none" width="1cm" height="1cm" x="10cm" y="52cm" />
<rect style="opacity:.5;fill:#7e7e7e;stroke:none" width="1cm" height="1cm" x="15cm" y="48cm" />
<rect style="opacity:.5;fill:#7e7e7e;stroke:none" width="1cm" height="1cm" x="12cm" y="47cm" />
<rect style="opacity:.5;fill:#7e7e7e;stroke:none" width="1cm" height="1cm" x="14cm" y="45cm" />
<rect style="opacity:.5;fill:#7e7e7e;stroke:none" width="1cm" height="1cm" x="7cm" y="51cm" />
<rect style="opacity:.5;fill:#7d7d7d;stroke:none" width="1cm" height="1cm" x="11cm" y="52cm" />
<rect style="opacity:.5;fill:#7d7d7d;stroke:none" width="1cm" height="1cm" x="10cm" y="46cm" />
<rect style="opacity:.5;fill:#7e7e7e;stroke:none" width="1cm" height="1cm" x="13cm" y="50cm" />
<rect style="opacity:.5;fill:#7e7e7e;stroke:none" width="1cm" height="1cm" x="12cm" y="48cm" />
<rect style="opacity:.5;fill:#797979;stroke:none" width="1cm" height="1cm" x="9cm" y="52cm" />
<rect style="opacity:.5;fill:#7d7d7d;stroke:none" width="1cm" height="1cm" x="10cm" y="50cm" />
<rect style="opacity:.5;fill:#7e7e7e;stroke:none" width="1cm" height="1cm" x="13cm" y="48cm" />
<rect style="opacity:.5;fill:#7e7e7e;stroke:none" width="1cm" height="1cm" x="8cm" y="50cm" />
<rect style="opacity:.5;fill:#7e7e7e;stroke:none" width="1cm" height="1cm" x="12cm" y="52cm" />
<rect style="opacity:.5;fill:#7e7e7e;stroke:none" width="1cm" height="1cm" x="12cm" y="43cm" />
<rect style="opacity:.5;fill:#7e7e7e;stroke:none" width="1cm" height="1cm" x="11cm" y="49cm" />
<rect style="opacity:.5;fill:#7d7d7d;stroke:none" width="1cm" height="1cm" x="14cm" y="46cm" />
<rect style="opacity:.5;fill:#7e7e7e;stroke:none" width="1cm" height="1cm" x="20cm" y="46cm" />
<rect style="opacity:.5;fill:#7d7d7d;stroke:none" width="1cm" height="1cm" x="10cm" y="48cm" />
<rect style="opacity:.5;fill:#7e7e7e;stroke:none" width="1cm" height="1cm" x="12cm" y="50cm" />
<rect style="opacity:.5;fill:#7e7e7e;stroke:none" width="1cm" height="1cm" x="18cm" y="46cm" />
<rect style="opacity:.5;fill:#7e7e7e;stroke:none" width="1cm" height="1cm" x="11cm" y="50cm" />
<rect style="opacity:.5;fill:#7e7e7e;stroke:none" width="1cm" height="1cm" x="13cm" y="41cm" />
<rect style="opacity:.5;fill:#7e7e7e;stroke:none" width="1cm" height="1cm" x="12cm" y="53cm" />
<rect style="opacity:.5;fill:#7e7e7e;stroke:none" width="1cm" height="1cm" x="12cm" y="51cm" />
<rect style="opacity:.5;fill:#7e7e7e;stroke:none" width="1cm" height="1cm" x="22cm" y="46cm" />
<rect style="opacity:.5;fill:#757575;stroke:none" width="1cm" height="1cm" x="6cm" y="53cm" />
<rect style="opacity:.5;fill:#7e7e7e;stroke:none" width="1cm" height="1cm" x="12cm" y="49cm" />
<rect style="opacity:.5;fill:#7e7e7e;stroke:none" width="1cm" height="1cm" x="15cm" y="44cm" />
<rect style="opacity:.5;fill:#7b7b7b;stroke:none" width="1cm" height="1cm" x="10cm" y="54cm" />
<rect style="opacity:.5;fill:#7e7e7e;stroke:none" width="1cm" height="1cm" x="13cm" y="51cm" />
<rect style="opacity:.5;fill:#7d7d7d;stroke:none" width="1cm" height="1cm" x="16cm" y="46cm" />
<rect style="opacity:.5;fill:#7d7d7d;stroke:none" width="1cm" height="1cm" x="13cm" y="46cm" />
<rect style="opacity:.5;fill:#7d7d7d;stroke:none" width="1cm" height="1cm" x="15cm" y="46cm" />
<rect style="opacity:.5;fill:#7e7e7e;stroke:none" width="1cm" height="1cm" x="11cm" y="43cm" />
<rect style="opacity:.5;fill:#7e7e7e;stroke:none" width="1cm" height="1cm" x="5cm" y="46cm" />
<rect style="opacity:.5;fill:#7e7e7e;stroke:none" width="1cm" height="1cm" x="17cm" y="51cm" />
<rect style="opacity:.5;fill:#7e7e7e;stroke:none" width="1cm" height="1cm" x="17cm" y="45cm" />
<rect style="opacity:.5;fill:#7e7e7e;stroke:none" width="1cm" height="1cm" x="14cm" y="49cm" />
<rect style="opacity:.5;fill:#7e7e7e;stroke:none" width="1cm" height="1cm" x="5cm" y="53cm" />
<rect style="opacity:.5;fill:#7e7e7e;stroke:none" width="1cm" height="1cm" x="13cm" y="45cm" />
<rect style="opacity:.5;fill:#7d7d7d;stroke:none" width="1cm" height="1cm" x="11cm" y="51cm" />
<rect style="opacity:.5;fill:#7e7e7e;stroke:none" width="1cm" height="1cm" x="19cm" y="46cm" />
<rect style="opacity:.5;fill:#7e7e7e;stroke:none" width="1cm" height="1cm" x="13cm" y="47cm" />
<rect style="opacity:.5;fill:#7e7e7e;stroke:none" width="1cm" height="1cm" x="253cm" y="54cm" />
<rect style="opacity:.5;fill:#7e7e7e;stroke:none" width="1cm" height="1cm" x="21cm" y="46cm" />
<rect style="opacity:.5;fill:#7d7d7d;stroke:none" width="1cm" height="1cm" x="11cm" y="48cm" />
<rect style="opacity:.5;fill:#7e7e7e;stroke:none" width="1cm" height="1cm" x="14cm" y="51cm" />
<rect style="opacity:.5;fill:#7e7e7e;stroke:none" width="1cm" height="1cm" x="15cm" y="41cm" />
<rect style="opacity:.5;fill:#7e7e7e;stroke:none" width="1cm" height="1cm" x="6cm" y="52cm" />
<rect style="opacity:.5;fill:#7e7e7e;stroke:none" width="1cm" height="1cm" x="20cm" y="43cm" />
<rect style="opacity:.5;fill:#7d7d7d;stroke:none" width="1cm" height="1cm" x="12cm" y="46cm" />
<rect style="opacity:.5;fill:#7e7e7e;stroke:none" width="1cm" height="1cm" x="11cm" y="53cm" />
<rect style="opacity:.5;fill:#7e7e7e;stroke:none" width="1cm" height="1cm" x="22cm" y="41cm" />
<rect style="opacity:.5;fill:#7e7e7e;stroke:none" width="1cm" height="1cm" x="12cm" y="45cm" />
<rect style="opacity:.5;fill:#7e7e7e;stroke:none" width="1cm" height="1cm" x="16cm" y="44cm" />
<rect style="opacity:.5;fill:#7e7e7e;stroke:none" width="1cm" height="1cm" x="20cm" y="48cm" />
<rect style="opacity:.5;fill:#7e7e7e;stroke:none" width="1cm" height="1cm" x="9cm" y="49cm" />
<rect style="opacity:.5;fill:#7e7e7e;stroke:none" width="1cm" height="1cm" x="16cm" y="50cm" />
<rect style="opacity:.5;fill:#7e7e7e;stroke:none" width="1cm" height="1cm" x="20cm" y="49cm" />
<rect style="opacity:.5;fill:#7e7e7e;stroke:none" width="1cm" height="1cm" x="11cm" y="47cm" />
<rect style="opacity:.5;fill:#7e7e7e;stroke:none" width="1cm" height="1cm" x="16cm" y="45cm" />
<rect style="opacity:.5;fill:#7e7e7e;stroke:none" width="1cm" height="1cm" x="18cm" y="50cm" />
<rect style="opacity:.5;fill:#7e7e7e;stroke:none" width="1cm" height="1cm" x="20cm" y="47cm" />
<rect style="opacity:.5;fill:#7e7e7e;stroke:none" width="1cm" height="1cm" x="14cm" y="41cm" />
<rect style="opacity:.5;fill:#7e7e7e;stroke:none" width="1cm" height="1cm" x="9cm" y="48cm" />
<rect style="opacity:.5;fill:#7e7e7e;stroke:none" width="1cm" height="1cm" x="26cm" y="39cm" />
<rect style="opacity:.5;fill:#7e7e7e;stroke:none" width="1cm" height="1cm" x="17cm" y="48cm" />
<rect style="opacity:.5;fill:#7e7e7e;stroke:none" width="1cm" height="1cm" x="17cm" y="47cm" />
<rect style="opacity:.5;fill:#7e7e7e;stroke:none" width="1cm" height="1cm" x="10cm" y="45cm" />
<rect style="opacity:.5;fill:#7e7e7e;stroke:none" width="1cm" height="1cm" x="14cm" y="47cm" />
<rect style="opacity:.5;fill:#7e7e7e;stroke:none" width="1cm" height="1cm" x="11cm" y="45cm" />
<rect style="opacity:.5;fill:#7e7e7e;stroke:none" width="1cm" height="1cm" x="18cm" y="49cm" />
<rect style="opacity:.5;fill:#7e7e7e;stroke:none" width="1cm" height="1cm" x="14cm" y="44cm" />
<rect style="opacity:.5;fill:#7e7e7e;stroke:none" width="1cm" height="1cm" x="16cm" y="47cm" />
<rect style="opacity:.5;fill:#7e7e7e;stroke:none" width="1cm" height="1cm" x="23cm" y="46cm" />
<rect style="opacity:.5;fill:#7e7e7e;stroke:none" width="1cm" height="1cm" x="15cm" y="50cm" />
<rect style="opacity:.5;fill:#7e7e7e;stroke:none" width="1cm" height="1cm" x="9cm" y="47cm" />
<rect style="opacity:.5;fill:#7e7e7e;stroke:none" width="1cm" height="1cm" x="15cm" y="45cm" />
<rect style="opacity:.5;fill:#7e7e7e;stroke:none" width="1cm" height="1cm" x="13cm" y="49cm" />
<rect style="opacity:.5;fill:#7e7e7e;stroke:none" width="1cm" height="1cm" x="18cm" y="47cm" />
<rect style="opacity:.5;fill:#7e7e7e;stroke:none" width="1cm" height="1cm" x="26cm" y="45cm" />
<rect style="opacity:.5;fill:#7e7e7e;stroke:none" width="1cm" height="1cm" x="17cm" y="44cm" />
<rect style="opacity:.5;fill:#7e7e7e;stroke:none" width="1cm" height="1cm" x="14cm" y="52cm" />
<rect style="opacity:.5;fill:#7e7e7e;stroke:none" width="1cm" height="1cm" x="14cm" y="48cm" />
<rect style="opacity:.5;fill:#7e7e7e;stroke:none" width="1cm" height="1cm" x="17cm" y="49cm" />
<rect style="opacity:.5;fill:#7e7e7e;stroke:none" width="1cm" height="1cm" x="24cm" y="46cm" />
<rect style="opacity:.5;fill:#7e7e7e;stroke:none" width="1cm" height="1cm" x="21cm" y="44cm" />
<rect style="opacity:.5;fill:#7e7e7e;stroke:none" width="1cm" height="1cm" x="10cm" y="47cm" />
<rect style="opacity:.5;fill:#7e7e7e;stroke:none" width="1cm" height="1cm" x="14cm" y="53cm" />
<rect style="opacity:.5;fill:#7e7e7e;stroke:none" width="1cm" height="1cm" x="8cm" y="49cm" />
<rect style="opacity:.5;fill:#7e7e7e;stroke:none" width="1cm" height="1cm" x="18cm" y="45cm" />
<rect style="opacity:.5;fill:#7e7e7e;stroke:none" width="1cm" height="1cm" x="15cm" y="49cm" />
<rect style="opacity:.5;fill:#7e7e7e;stroke:none" width="1cm" height="1cm" x="58cm" y="54cm" />
<rect style="opacity:.5;fill:#7e7e7e;stroke:none" width="1cm" height="1cm" x="23cm" y="47cm" />
<rect style="opacity:.5;fill:#7e7e7e;stroke:none" width="1cm" height="1cm" x="16cm" y="48cm" />
<rect style="opacity:.5;fill:#7e7e7e;stroke:none" width="1cm" height="1cm" x="7cm" y="50cm" />
<rect style="opacity:.5;fill:#7e7e7e;stroke:none" width="1cm" height="1cm" x="16cm" y="49cm" />
<rect style="opacity:.5;fill:#7e7e7e;stroke:none" width="1cm" height="1cm" x="19cm" y="49cm" />
<rect style="opacity:.5;fill:#7e7e7e;stroke:none" width="1cm" height="1cm" x="12cm" y="42cm" />
<rect style="opacity:.5;fill:#7e7e7e;stroke:none" width="1cm" height="1cm" x="17cm" y="40cm" />
<rect style="opacity:.5;fill:#7e7e7e;stroke:none" width="1cm" height="1cm" x="13cm" y="44cm" />
<rect style="opacity:.5;fill:#7e7e7e;stroke:none" width="1cm" height="1cm" x="19cm" y="48cm" />
<rect style="opacity:.5;fill:#7e7e7e;stroke:none" width="1cm" height="1cm" x="13cm" y="52cm" />
<rect style="opacity:.5;fill:#7e7e7e;stroke:none" width="1cm" height="1cm" x="25cm" y="44cm" />
<rect style="opacity:.5;fill:#7e7e7e;stroke:none" width="1cm" height="1cm" x="12cm" y="39cm" />
<rect style="opacity:.5;fill:#7e7e7e;stroke:none" width="1cm" height="1cm" x="19cm" y="47cm" />
<rect style="opacity:.5;fill:#7e7e7e;stroke:none" width="1cm" height="1cm" x="16cm" y="52cm" />
<rect style="opacity:.5;fill:#7e7e7e;stroke:none" width="1cm" height="1cm" x="12cm" y="44cm" />
<rect style="opacity:.5;fill:#7e7e7e;stroke:none" width="1cm" height="1cm" x="19cm" y="43cm" />
<rect style="opacity:.5;fill:#7e7e7e;stroke:none" width="1cm" height="1cm" x="21cm" y="40cm" />
<rect style="opacity:.5;fill:#7e7e7e;stroke:none" width="1cm" height="1cm" x="19cm" y="45cm" />
<rect style="opacity:.5;fill:#7e7e7e;stroke:none" width="1cm" height="1cm" x="17cm" y="43cm" />
<rect style="opacity:.5;fill:#7e7e7e;stroke:none" width="1cm" height="1cm" x="11cm" y="44cm" />
<rect style="opacity:.5;fill:#7e7e7e;stroke:none" width="1cm" height="1cm" x="14cm" y="43cm" />
<rect style="opacity:.5;fill:#7c7c7c;stroke:none" width="1cm" height="1cm" x="11cm" y="54cm" />
<rect style="opacity:.5;fill:#7e7e7e;stroke:none" width="1cm" height="1cm" x="29cm" y="46cm" />
<rect style="opacity:.5;fill:#7e7e7e;stroke:none" width="1cm" height="1cm" x="20cm" y="45cm" />
<rect style="opacity:.5;fill:#7e7e7e;stroke:none" width="1cm" height="1cm" x="13cm" y="53cm" />
<rect style="opacity:.5;fill:#7e7e7e;stroke:none" width="1cm" height="1cm" x="21cm" y="45cm" />
<rect style="opacity:.5;fill:#7e7e7e;stroke:none" width="1cm" height="1cm" x="15cm" y="51cm" />
<rect style="opacity:.5;fill:#7e7e7e;stroke:none" width="1cm" height="1cm" x="18cm" y="48cm" />
<rect style="opacity:.5;fill:#7e7e7e;stroke:none" width="1cm" height="1cm" x="26cm" y="46cm" />
<rect style="opacity:.5;fill:#7e7e7e;stroke:none" width="1cm" height="1cm" x="14cm" y="42cm" />
<rect style="opacity:.5;fill:#7e7e7e;stroke:none" width="1cm" height="1cm" x="109cm" y="53cm" />
<rect style="opacity:.5;fill:#7e7e7e;stroke:none" width="1cm" height="1cm" x="17cm" y="42cm" />
<rect style="opacity:.5;fill:#7d7d7d;stroke:none" width="1cm" height="1cm" x="12cm" y="54cm" />
<rect style="opacity:.5;fill:#7e7e7e;stroke:none" width="1cm" height="1cm" x="20cm" y="44cm" />
<rect style="opacity:.5;fill:#7e7e7e;stroke:none" width="1cm" height="1cm" x="16cm" y="43cm" />
<rect style="opacity:.5;fill:#7e7e7e;stroke:none" width="1cm" height="1cm" x="16cm" y="41cm" />
<rect style="opacity:.5;fill:#7e7e7e;stroke:none" width="1cm" height="1cm" x="24cm" y="40cm" />
<rect style="opacity:.5;fill:#7e7e7e;stroke:none" width="1cm" height="1cm" x="24cm" y="38cm" />
<rect style="opacity:.5;fill:#7e7e7e;stroke:none" width="1cm" height="1cm" x="125cm" y="54cm" />
<rect style="opacity:.5;fill:#7e7e7e;stroke:none" width="1cm" height="1cm" x="198cm" y="54cm" />
<rect style="opacity:.5;fill:#7e7e7e;stroke:none" width="1cm" height="1cm" x="19cm" y="32cm" />
<rect style="opacity:.5;fill:#7e7e7e;stroke:none" width="1cm" height="1cm" x="7cm" y="49cm" />
<rect style="opacity:.5;fill:#7e7e7e;stroke:none" width="1cm" height="1cm" x="73cm" y="52cm" />
<rect style="opacity:.5;fill:#7e7e7e;stroke:none" width="1cm" height="1cm" x="86cm" y="54cm" />
<rect style="opacity:.5;fill:#7e7e7e;stroke:none" width="1cm" height="1cm" x="22cm" y="47cm" />
<rect style="opacity:.5;fill:#7e7e7e;stroke:none" width="1cm" height="1cm" x="25cm" y="41cm" />
<rect style="opacity:.5;fill:#7e7e7e;stroke:none" width="1cm" height="1cm" x="18cm" y="40cm" />
<rect style="opacity:.5;fill:#7e7e7e;stroke:none" width="1cm" height="1cm" x="6cm" y="51cm" />
<rect style="opacity:.5;fill:#7e7e7e;stroke:none" width="1cm" height="1cm" x="21cm" y="47cm" />
<rect style="opacity:.5;fill:#7e7e7e;stroke:none" width="1cm" height="1cm" x="16cm" y="34cm" />
<rect style="opacity:.5;fill:#7e7e7e;stroke:none" width="1cm" height="1cm" x="17cm" y="50cm" />
<rect style="opacity:.5;fill:#7e7e7e;stroke:none" width="1cm" height="1cm" x="9cm" y="46cm" />
<rect style="opacity:.5;fill:#7e7e7e;stroke:none" width="1cm" height="1cm" x="95cm" y="54cm" />
<rect style="opacity:.5;fill:#7e7e7e;stroke:none" width="1cm" height="1cm" x="16cm" y="42cm" />
<rect style="opacity:.5;fill:#7e7e7e;stroke:none" width="1cm" height="1cm" x="11cm" y="39cm" />
<rect style="opacity:.5;fill:#7e7e7e;stroke:none" width="1cm" height="1cm" x="15cm" y="52cm" />
<rect style="opacity:.5;fill:#7e7e7e;stroke:none" width="1cm" height="1cm" x="23cm" y="38cm" />
<rect style="opacity:.5;fill:#7e7e7e;stroke:none" width="1cm" height="1cm" x="12cm" y="34cm" />
<rect style="opacity:.5;fill:#7e7e7e;stroke:none" width="1cm" height="1cm" x="18cm" y="39cm" />
<rect style="opacity:.5;fill:#7e7e7e;stroke:none" width="1cm" height="1cm" x="27cm" y="44cm" />
<rect style="opacity:.5;fill:#7e7e7e;stroke:none" width="1cm" height="1cm" x="7cm" y="48cm" />
<rect style="opacity:.5;fill:#7e7e7e;stroke:none" width="1cm" height="1cm" x="96cm" y="54cm" />
<rect style="opacity:.5;fill:#7e7e7e;stroke:none" width="1cm" height="1cm" x="195cm" y="46cm" />
<rect style="opacity:.5;fill:#7e7e7e;stroke:none" width="1cm" height="1cm" x="24cm" y="42cm" />
<rect style="opacity:.5;fill:#7e7e7e;stroke:none" width="1cm" height="1cm" x="24cm" y="25cm" />
<rect style="opacity:.5;fill:#7e7e7e;stroke:none" width="1cm" height="1cm" x="30cm" y="45cm" />
<rect style="opacity:.5;fill:#7e7e7e;stroke:none" width="1cm" height="1cm" x="14cm" y="54cm" />
<rect style="opacity:.5;fill:#7e7e7e;stroke:none" width="1cm" height="1cm" x="27cm" y="43cm" />
<rect style="opacity:.5;fill:#7e7e7e;stroke:none" width="1cm" height="1cm" x="15cm" y="42cm" />
<rect style="opacity:.5;fill:#7e7e7e;stroke:none" width="1cm" height="1cm" x="31cm" y="51cm" />
<rect style="opacity:.5;fill:#7e7e7e;stroke:none" width="1cm" height="1cm" x="21cm" y="48cm" />
<rect style="opacity:.5;fill:#7e7e7e;stroke:none" width="1cm" height="1cm" x="17cm" y="54cm" />
<rect style="opacity:.5;fill:#7e7e7e;stroke:none" width="1cm" height="1cm" x="15cm" y="54cm" />
<rect style="opacity:.5;fill:#7e7e7e;stroke:none" width="1cm" height="1cm" x="18cm" y="37cm" />
<rect style="opacity:.5;fill:#7e7e7e;stroke:none" width="1cm" height="1cm" x="19cm" y="54cm" />
<rect style="opacity:.5;fill:#7e7e7e;stroke:none" width="1cm" height="1cm" x="18cm" y="54cm" />
<rect style="opacity:.5;fill:#7d7d7d;stroke:none" width="1cm" height="1cm" x="13cm" y="54cm" />
<rect style="opacity:.5;fill:#7e7e7e;stroke:none" width="1cm" height="1cm" x="26cm" y="53cm" />
<rect style="opacity:.5;fill:#7e7e7e;stroke:none" width="1cm" height="1cm" x="16cm" y="54cm" />
<rect style="opacity:.5;fill:#7e7e7e;stroke:none" width="1cm" height="1cm" x="21cm" y="54cm" />
<rect style="opacity:.5;fill:#7e7e7e;stroke:none" width="1cm" height="1cm" x="8cm" y="47cm" />
<rect style="opacity:.5;fill:#7e7e7e;stroke:none" width="1cm" height="1cm" x="9cm" y="22cm" />
<rect style="opacity:.5;fill:#7e7e7e;stroke:none" width="1cm" height="1cm" x="7cm" y="43cm" />
<rect style="opacity:.5;fill:#7e7e7e;stroke:none" width="1cm" height="1cm" x="8cm" y="46cm" />
<rect style="opacity:.5;fill:#7e7e7e;stroke:none" width="1cm" height="1cm" x="17cm" y="53cm" />
<rect style="opacity:.5;fill:#7e7e7e;stroke:none" width="1cm" height="1cm" x="6cm" y="50cm" />
<rect style="opacity:.5;fill:#7e7e7e;stroke:none" width="1cm" height="1cm" x="5cm" y="52cm" />
<rect style="opacity:.5;fill:#7e7e7e;stroke:none" width="1cm" height="1cm" x="7cm" y="47cm" />
<rect style="opacity:.5;fill:#7e7e7e;stroke:none" width="1cm" height="1cm" x="8cm" y="34cm" />
<rect style="opacity:.5;fill:#7e7e7e;stroke:none" width="1cm" height="1cm" x="23cm" y="54cm" />
<rect style="opacity:.5;fill:#7e7e7e;stroke:none" width="1cm" height="1cm" x="9cm" y="24cm" />
<rect style="opacity:.5;fill:#7e7e7e;stroke:none" width="1cm" height="1cm" x="6cm" y="48cm" />
<rect style="opacity:.5;fill:#7e7e7e;stroke:none" width="1cm" height="1cm" x="8cm" y="43cm" />
<rect style="opacity:.5;fill:#7e7e7e;stroke:none" width="1cm" height="1cm" x="24cm" y="54cm" />
<rect style="opacity:.5;fill:#7e7e7e;stroke:none" width="1cm" height="1cm" x="21cm" y="53cm" />
<rect style="opacity:.5;fill:#7e7e7e;stroke:none" width="1cm" height="1cm" x="9cm" y="35cm" />
<rect style="opacity:.5;fill:#7e7e7e;stroke:none" width="1cm" height="1cm" x="36cm" y="53cm" />
<rect style="opacity:.5;fill:#7e7e7e;stroke:none" width="1cm" height="1cm" x="20cm" y="54cm" />
<rect style="opacity:.5;fill:#7e7e7e;stroke:none" width="1cm" height="1cm" x="25cm" y="54cm" />
<rect style="opacity:.5;fill:#7e7e7e;stroke:none" width="1cm" height="1cm" x="29cm" y="54cm" />
<rect style="opacity:.5;fill:#7e7e7e;stroke:none" width="1cm" height="1cm" x="9cm" y="43cm" />
<rect style="opacity:.5;fill:#7e7e7e;stroke:none" width="1cm" height="1cm" x="6cm" y="49cm" />
<rect style="opacity:.5;fill:#7e7e7e;stroke:none" width="1cm" height="1cm" x="11cm" y="13cm" />
<rect style="opacity:.5;fill:#7e7e7e;stroke:none" width="1cm" height="1cm" x="7cm" y="36cm" />
<rect style="opacity:.5;fill:#7e7e7e;stroke:none" width="1cm" height="1cm" x="22cm" y="54cm" />
<rect style="opacity:.5;fill:#7e7e7e;stroke:none" width="1cm" height="1cm" x="34cm" y="54cm" />
<rect style="opacity:.5;fill:#7e7e7e;stroke:none" width="1cm" height="1cm" x="7cm" y="32cm" />
<rect style="opacity:.5;fill:#7e7e7e;stroke:none" width="1cm" height="1cm" x="30cm" y="54cm" />
<rect style="opacity:.5;fill:#7e7e7e;stroke:none" width="1cm" height="1cm" x="7cm" y="41cm" />
<rect style="opacity:.5;fill:#7e7e7e;stroke:none" width="1cm" height="1cm" x="7cm" y="40cm" />
<rect style="opacity:.5;fill:#7e7e7e;stroke:none" width="1cm" height="1cm" x="45cm" y="54cm" />
<rect style="opacity:.5;fill:#7e7e7e;stroke:none" width="1cm" height="1cm" x="26cm" y="54cm" />
<rect style="opacity:.5;fill:#7e7e7e;stroke:none" width="1cm" height="1cm" x="9cm" y="38cm" />
<rect style="opacity:.5;fill:#7e7e7e;stroke:none" width="1cm" height="1cm" x="20cm" y="53cm" />
<rect style="opacity:.5;fill:#7e7e7e;stroke:none" width="1cm" height="1cm" x="7cm" y="44cm" />
<rect style="opacity:.5;fill:#7e7e7e;stroke:none" width="1cm" height="1cm" x="16cm" y="53cm" />
<rect style="opacity:.5;fill:#7e7e7e;stroke:none" width="1cm" height="1cm" x="12cm" y="8cm" />
<rect style="opacity:.5;fill:#7e7e7e;stroke:none" width="1cm" height="1cm" x="8cm" y="36cm" />
<rect style="opacity:.5;fill:#7e7e7e;stroke:none" width="1cm" height="1cm" x="22cm" y="53cm" />
<rect style="opacity:.5;fill:#7e7e7e;stroke:none" width="1cm" height="1cm" x="13cm" y="42cm" />
<rect style="opacity:.5;fill:#7e7e7e;stroke:none" width="1cm" height="1cm" x="24cm" y="45cm" />
<rect style="opacity:.5;fill:#7e7e7e;stroke:none" width="1cm" height="1cm" x="20cm" y="39cm" />
<rect style="opacity:.5;fill:#7e7e7e;stroke:none" width="1cm" height="1cm" x="27cm" y="54cm" />
<rect style="opacity:.5;fill:#7e7e7e;stroke:none" width="1cm" height="1cm" x="32cm" y="44cm" />
<rect style="opacity:.5;fill:#7e7e7e;stroke:none" width="1cm" height="1cm" x="18cm" y="41cm" />
<rect style="opacity:.5;fill:#7e7e7e;stroke:none" width="1cm" height="1cm" x="13cm" y="43cm" />
<rect style="opacity:.5;fill:#7e7e7e;stroke:none" width="1cm" height="1cm" x="19cm" y="51cm" />
<rect style="opacity:.5;fill:#7e7e7e;stroke:none" width="1cm" height="1cm" x="17cm" y="37cm" />
<rect style="opacity:.5;fill:#7e7e7e;stroke:none" width="1cm" height="1cm" x="24cm" y="44cm" />
<rect style="opacity:.5;fill:#7e7e7e;stroke:none" width="1cm" height="1cm" x="14cm" y="40cm" />
<rect style="opacity:.5;fill:#7e7e7e;stroke:none" width="1cm" height="1cm" x="33cm" y="44cm" />
<rect style="opacity:.5;fill:#7e7e7e;stroke:none" width="1cm" height="1cm" x="23cm" y="28cm" />
<rect style="opacity:.5;fill:#7e7e7e;stroke:none" width="1cm" height="1cm" x="19cm" y="37cm" />
<rect style="opacity:.5;fill:#7e7e7e;stroke:none" width="1cm" height="1cm" x="22cm" y="39cm" />
<rect style="opacity:.5;fill:#7e7e7e;stroke:none" width="1cm" height="1cm" x="29cm" y="41cm" />
<rect style="opacity:.5;fill:#7e7e7e;stroke:none" width="1cm" height="1cm" x="22cm" y="24cm" />
<rect style="opacity:.5;fill:#7e7e7e;stroke:none" width="1cm" height="1cm" x="16cm" y="40cm" />
<rect style="opacity:.5;fill:#7e7e7e;stroke:none" width="1cm" height="1cm" x="34cm" y="44cm" />
<rect style="opacity:.5;fill:#7e7e7e;stroke:none" width="1cm" height="1cm" x="8cm" y="48cm" />
<rect style="opacity:.5;fill:#7e7e7e;stroke:none" width="1cm" height="1cm" x="27cm" y="49cm" />
<rect style="opacity:.5;fill:#7e7e7e;stroke:none" width="1cm" height="1cm" x="21cm" y="26cm" />
<rect style="opacity:.5;fill:#7e7e7e;stroke:none" width="1cm" height="1cm" x="25cm" y="42cm" />
<rect style="opacity:.5;fill:#7e7e7e;stroke:none" width="1cm" height="1cm" x="23cm" y="48cm" />
<rect style="opacity:.5;fill:#7e7e7e;stroke:none" width="1cm" height="1cm" x="30cm" y="37cm" />
<rect style="opacity:.5;fill:#7e7e7e;stroke:none" width="1cm" height="1cm" x="19cm" y="38cm" />
<rect style="opacity:.5;fill:#7e7e7e;stroke:none" width="1cm" height="1cm" x="22cm" y="43cm" />
<rect style="opacity:.5;fill:#7e7e7e;stroke:none" width="1cm" height="1cm" x="24cm" y="33cm" />
<rect style="opacity:.5;fill:#7e7e7e;stroke:none" width="1cm" height="1cm" x="20cm" y="32cm" />
<rect style="opacity:.5;fill:#7e7e7e;stroke:none" width="1cm" height="1cm" x="23cm" y="43cm" />
<rect style="opacity:.5;fill:#7e7e7e;stroke:none" width="1cm" height="1cm" x="19cm" y="35cm" />
<rect style="opacity:.5;fill:#7e7e7e;stroke:none" width="1cm" height="1cm" x="25cm" y="47cm" />
<rect style="opacity:.5;fill:#7e7e7e;stroke:none" width="1cm" height="1cm" x="17cm" y="41cm" />
<rect style="opacity:.5;fill:#7e7e7e;stroke:none" width="1cm" height="1cm" x="29cm" y="16cm" />
<rect style="opacity:.5;fill:#7e7e7e;stroke:none" width="1cm" height="1cm" x="17cm" y="36cm" />
<rect style="opacity:.5;fill:#7e7e7e;stroke:none" width="1cm" height="1cm" x="21cm" y="34cm" />
<rect style="opacity:.5;fill:#7e7e7e;stroke:none" width="1cm" height="1cm" x="38cm" y="54cm" />
<rect style="opacity:.5;fill:#7e7e7e;stroke:none" width="1cm" height="1cm" x="32cm" y="37cm" />
<rect style="opacity:.5;fill:#7e7e7e;stroke:none" width="1cm" height="1cm" x="28cm" y="47cm" />
<rect style="opacity:.5;fill:#7e7e7e;stroke:none" width="1cm" height="1cm" x="19cm" y="44cm" />
<rect style="opacity:.5;fill:#7e7e7e;stroke:none" width="1cm" height="1cm" x="22cm" y="40cm" />
<rect style="opacity:.5;fill:#7e7e7e;stroke:none" width="1cm" height="1cm" x="15cm" y="43cm" />
<rect style="opacity:.5;fill:#7e7e7e;stroke:none" width="1cm" height="1cm" x="18cm" y="38cm" />
<rect style="opacity:.5;fill:#7e7e7e;stroke:none" width="1cm" height="1cm" x="31cm" y="47cm" />
<rect style="opacity:.5;fill:#7e7e7e;stroke:none" width="1cm" height="1cm" x="19cm" y="41cm" />
<rect style="opacity:.5;fill:#7e7e7e;stroke:none" width="1cm" height="1cm" x="31cm" y="46cm" />
<rect style="opacity:.5;fill:#7e7e7e;stroke:none" width="1cm" height="1cm" x="23cm" y="34cm" />
<rect style="opacity:.5;fill:#7e7e7e;stroke:none" width="1cm" height="1cm" x="15cm" y="35cm" />
<rect style="opacity:.5;fill:#7e7e7e;stroke:none" width="1cm" height="1cm" x="17cm" y="52cm" />
<rect style="opacity:.5;fill:#7e7e7e;stroke:none" width="1cm" height="1cm" x="25cm" y="50cm" />
<rect style="opacity:.5;fill:#7e7e7e;stroke:none" width="1cm" height="1cm" x="34cm" y="22cm" />
<rect style="opacity:.5;fill:#7e7e7e;stroke:none" width="1cm" height="1cm" x="20cm" y="50cm" />
<rect style="opacity:.5;fill:#7e7e7e;stroke:none" width="1cm" height="1cm" x="15cm" y="53cm" />
<rect style="opacity:.5;fill:#7e7e7e;stroke:none" width="1cm" height="1cm" x="30cm" y="38cm" />
<rect style="opacity:.5;fill:#7e7e7e;stroke:none" width="1cm" height="1cm" x="15cm" y="40cm" />
<rect style="opacity:.5;fill:#7e7e7e;stroke:none" width="1cm" height="1cm" x="21cm" y="49cm" />
<rect style="opacity:.5;fill:#7e7e7e;stroke:none" width="1cm" height="1cm" x="30cm" y="47cm" />
<rect style="opacity:.5;fill:#7e7e7e;stroke:none" width="1cm" height="1cm" x="18cm" y="33cm" />
<rect style="opacity:.5;fill:#7e7e7e;stroke:none" width="1cm" height="1cm" x="27cm" y="41cm" />
<rect style="opacity:.5;fill:#7e7e7e;stroke:none" width="1cm" height="1cm" x="24cm" y="51cm" />
<rect style="opacity:.5;fill:#7e7e7e;stroke:none" width="1cm" height="1cm" x="24cm" y="48cm" />
<rect style="opacity:.5;fill:#7e7e7e;stroke:none" width="1cm" height="1cm" x="22cm" y="42cm" />
<rect style="opacity:.5;fill:#7e7e7e;stroke:none" width="1cm" height="1cm" x="18cm" y="51cm" />
<rect style="opacity:.5;fill:#7e7e7e;stroke:none" width="1cm" height="1cm" x="19cm" y="50cm" />
<rect style="opacity:.5;fill:#7e7e7e;stroke:none" width="1cm" height="1cm" x="16cm" y="51cm" />
<rect style="opacity:.5;fill:#7e7e7e;stroke:none" width="1cm" height="1cm" x="15cm" y="39cm" />
<rect style="opacity:.5;fill:#7e7e7e;stroke:none" width="1cm" height="1cm" x="29cm" y="51cm" />
<rect style="opacity:.5;fill:#7e7e7e;stroke:none" width="1cm" height="1cm" x="27cm" y="47cm" />
<rect style="opacity:.5;fill:#7e7e7e;stroke:none" width="1cm" height="1cm" x="23cm" y="30cm" />
<rect style="opacity:.5;fill:#7e7e7e;stroke:none" width="1cm" height="1cm" x="36cm" y="35cm" />
<rect style="opacity:.5;fill:#7e7e7e;stroke:none" width="1cm" height="1cm" x="20cm" y="52cm" />
<rect style="opacity:.5;fill:#7e7e7e;stroke:none" width="1cm" height="1cm" x="19cm" y="40cm" />
<rect style="opacity:.5;fill:#7e7e7e;stroke:none" width="1cm" height="1cm" x="20cm" y="42cm" />
<rect style="opacity:.5;fill:#7e7e7e;stroke:none" width="1cm" height="1cm" x="23cm" y="52cm" />
<rect style="opacity:.5;fill:#7e7e7e;stroke:none" width="1cm" height="1cm" x="17cm" y="39cm" />
<rect style="opacity:.5;fill:#7e7e7e;stroke:none" width="1cm" height="1cm" x="25cm" y="49cm" />
<rect style="opacity:.5;fill:#7e7e7e;stroke:none" width="1cm" height="1cm" x="28cm" y="37cm" />
<rect style="opacity:.5;fill:#7e7e7e;stroke:none" width="1cm" height="1cm" x="32cm" y="47cm" />
<rect style="opacity:.5;fill:#7e7e7e;stroke:none" width="1cm" height="1cm" x="23cm" y="49cm" />
<rect style="opacity:.5;fill:#7e7e7e;stroke:none" width="1cm" height="1cm" x="21cm" y="50cm" />
<rect style="opacity:.5;fill:#7e7e7e;stroke:none" width="1cm" height="1cm" x="25cm" y="40cm" />
<rect style="opacity:.5;fill:#7e7e7e;stroke:none" width="1cm" height="1cm" x="25cm" y="48cm" />
<rect style="opacity:.5;fill:#7e7e7e;stroke:none" width="1cm" height="1cm" x="20cm" y="41cm" />
<rect style="opacity:.5;fill:#7e7e7e;stroke:none" width="1cm" height="1cm" x="34cm" y="42cm" />
<rect style="opacity:.5;fill:#7e7e7e;stroke:none" width="1cm" height="1cm" x="19cm" y="53cm" />
<rect style="opacity:.5;fill:#7e7e7e;stroke:none" width="1cm" height="1cm" x="26cm" y="48cm" />
<rect style="opacity:.5;fill:#7e7e7e;stroke:none" width="1cm" height="1cm" x="22cm" y="50cm" />
<rect style="opacity:.5;fill:#7e7e7e;stroke:none" width="1cm" height="1cm" x="16cm" y="39cm" />
<rect style="opacity:.5;fill:#7e7e7e;stroke:none" width="1cm" height="1cm" x="14cm" y="39cm" />
<rect style="opacity:.5;fill:#7e7e7e;stroke:none" width="1cm" height="1cm" x="26cm" y="42cm" />
<rect style="opacity:.5;fill:#7e7e7e;stroke:none" width="1cm" height="1cm" x="26cm" y="49cm" />
<rect style="opacity:.5;fill:#7e7e7e;stroke:none" width="1cm" height="1cm" x="55cm" y="34cm" />
<rect style="opacity:.5;fill:#7e7e7e;stroke:none" width="1cm" height="1cm" x="35cm" y="14cm" />
<rect style="opacity:.5;fill:#7e7e7e;stroke:none" width="1cm" height="1cm" x="27cm" y="40cm" />
<rect style="opacity:.5;fill:#7e7e7e;stroke:none" width="1cm" height="1cm" x="23cm" y="39cm" />
<rect style="opacity:.5;fill:#7e7e7e;stroke:none" width="1cm" height="1cm" x="17cm" y="38cm" />
<rect style="opacity:.5;fill:#7e7e7e;stroke:none" width="1cm" height="1cm" x="20cm" y="40cm" />
<rect style="opacity:.5;fill:#7e7e7e;stroke:none" width="1cm" height="1cm" x="24cm" y="31cm" />
<rect style="opacity:.5;fill:#7e7e7e;stroke:none" width="1cm" height="1cm" x="36cm" y="37cm" />
<rect style="opacity:.5;fill:#7e7e7e;stroke:none" width="1cm" height="1cm" x="29cm" y="29cm" />
<rect style="opacity:.5;fill:#7e7e7e;stroke:none" width="1cm" height="1cm" x="19cm" y="42cm" />
<rect style="opacity:.5;fill:#7e7e7e;stroke:none" width="1cm" height="1cm" x="20cm" y="29cm" />
<rect style="opacity:.5;fill:#7e7e7e;stroke:none" width="1cm" height="1cm" x="36cm" y="17cm" />
<rect style="opacity:.5;fill:#7e7e7e;stroke:none" width="1cm" height="1cm" x="23cm" y="33cm" />
<rect style="opacity:.5;fill:#7e7e7e;stroke:none" width="1cm" height="1cm" x="24cm" y="37cm" />
<rect style="opacity:.5;fill:#7e7e7e;stroke:none" width="1cm" height="1cm" x="23cm" y="45cm" />
<rect style="opacity:.5;fill:#7e7e7e;stroke:none" width="1cm" height="1cm" x="16cm" y="32cm" />
<rect style="opacity:.5;fill:#7e7e7e;stroke:none" width="1cm" height="1cm" x="12cm" y="41cm" />
<rect style="opacity:.5;fill:#7e7e7e;stroke:none" width="1cm" height="1cm" x="23cm" y="37cm" />
<rect style="opacity:.5;fill:#7e7e7e;stroke:none" width="1cm" height="1cm" x="32cm" y="38cm" />
<rect style="opacity:.5;fill:#7e7e7e;stroke:none" width="1cm" height="1cm" x="16cm" y="38cm" />
<rect style="opacity:.5;fill:#7e7e7e;stroke:none" width="1cm" height="1cm" x="5cm" y="39cm" />
<rect style="opacity:.5;fill:#7e7e7e;stroke:none" width="1cm" height="1cm" x="8cm" y="-263cm" />
<rect style="opacity:.5;fill:#7e7e7e;stroke:none" width="1cm" height="1cm" x="14cm" y="37cm" />
<rect style="opacity:.5;fill:#7e7e7e;stroke:none" width="1cm" height="1cm" x="26cm" y="33cm" />
<rect style="opacity:.5;fill:#7e7e7e;stroke:none" width="1cm" height="1cm" x="24cm" y="39cm" />
<rect style="opacity:.5;fill:#7e7e7e;stroke:none" width="1cm" height="1cm" x="13cm" y="38cm" />
<rect style="opacity:.5;fill:#7e7e7e;stroke:none" width="1cm" height="1cm" x="16cm" y="33cm" />
<rect style="opacity:.5;fill:#7e7e7e;stroke:none" width="1cm" height="1cm" x="15cm" y="34cm" />
<rect style="opacity:.5;fill:#7e7e7e;stroke:none" width="1cm" height="1cm" x="31cm" y="44cm" />
<rect style="opacity:.5;fill:#7e7e7e;stroke:none" width="1cm" height="1cm" x="22cm" y="52cm" />
<rect style="opacity:.5;fill:#7e7e7e;stroke:none" width="1cm" height="1cm" x="28cm" y="46cm" />
<rect style="opacity:.5;fill:#7e7e7e;stroke:none" width="1cm" height="1cm" x="24cm" y="47cm" />
<rect style="opacity:.5;fill:#7e7e7e;stroke:none" width="1cm" height="1cm" x="22cm" y="44cm" />
<rect style="opacity:.5;fill:#7e7e7e;stroke:none" width="1cm" height="1cm" x="13cm" y="36cm" />
<rect style="opacity:.5;fill:#7e7e7e;stroke:none" width="1cm" height="1cm" x="20cm" y="51cm" />
<rect style="opacity:.5;fill:#7e7e7e;stroke:none" width="1cm" height="1cm" x="24cm" y="28cm" />
<rect style="opacity:.5;fill:#7e7e7e;stroke:none" width="1cm" height="1cm" x="23cm" y="50cm" />
<rect style="opacity:.5;fill:#7e7e7e;stroke:none" width="1cm" height="1cm" x="10cm" y="44cm" />
<rect style="opacity:.5;fill:#7e7e7e;stroke:none" width="1cm" height="1cm" x="31cm" y="37cm" />
<rect style="opacity:.5;fill:#7e7e7e;stroke:none" width="1cm" height="1cm" x="15cm" y="38cm" />
<rect style="opacity:.5;fill:#7e7e7e;stroke:none" width="1cm" height="1cm" x="218cm" y="54cm" />
<rect style="opacity:.5;fill:#7e7e7e;stroke:none" width="1cm" height="1cm" x="11cm" y="33cm" />
<rect style="opacity:.5;fill:#7e7e7e;stroke:none" width="1cm" height="1cm" x="5cm" y="51cm" />
<rect style="opacity:.5;fill:#7e7e7e;stroke:none" width="1cm" height="1cm" x="87cm" y="54cm" />
<rect style="opacity:.5;fill:#7e7e7e;stroke:none" width="1cm" height="1cm" x="284cm" y="54cm" />
<rect style="opacity:.5;fill:#7e7e7e;stroke:none" width="1cm" height="1cm" x="306cm" y="54cm" />
<rect style="opacity:.5;fill:#7e7e7e;stroke:none" width="1cm" height="1cm" x="11cm" y="38cm" />
<rect style="opacity:.5;fill:#7e7e7e;stroke:none" width="1cm" height="1cm" x="28cm" y="50cm" />
<rect style="opacity:.5;fill:#7e7e7e;stroke:none" width="1cm" height="1cm" x="20cm" y="37cm" />
<rect style="opacity:.5;fill:#7e7e7e;stroke:none" width="1cm" height="1cm" x="261cm" y="54cm" />
<rect style="opacity:.5;fill:#7e7e7e;stroke:none" width="1cm" height="1cm" x="26cm" y="52cm" />
<rect style="opacity:.5;fill:#7e7e7e;stroke:none" width="1cm" height="1cm" x="5cm" y="47cm" />
<rect style="opacity:.5;fill:#7e7e7e;stroke:none" width="1cm" height="1cm" x="244cm" y="54cm" />
<rect style="opacity:.5;fill:#7e7e7e;stroke:none" width="1cm" height="1cm" x="17cm" y="32cm" />
<rect style="opacity:.5;fill:#7e7e7e;stroke:none" width="1cm" height="1cm" x="6cm" y="47cm" />
<rect style="opacity:.5;fill:#7e7e7e;stroke:none" width="1cm" height="1cm" x="26cm" y="36cm" />
<rect style="opacity:.5;fill:#7e7e7e;stroke:none" width="1cm" height="1cm" x="5cm" y="50cm" />
<rect style="opacity:.5;fill:#7e7e7e;stroke:none" width="1cm" height="1cm" x="19cm" y="33cm" />
<rect style="opacity:.5;fill:#7e7e7e;stroke:none" width="1cm" height="1cm" x="296cm" y="54cm" />
<rect style="opacity:.5;fill:#7e7e7e;stroke:none" width="1cm" height="1cm" x="120cm" y="54cm" />
<rect style="opacity:.5;fill:#7e7e7e;stroke:none" width="1cm" height="1cm" x="218cm" y="52cm" />
<rect style="opacity:.5;fill:#7e7e7e;stroke:none" width="1cm" height="1cm" x="23cm" y="35cm" />
<rect style="opacity:.5;fill:#7e7e7e;stroke:none" width="1cm" height="1cm" x="5cm" y="48cm" />
<rect style="opacity:.5;fill:#7e7e7e;stroke:none" width="1cm" height="1cm" x="243cm" y="54cm" />
<rect style="opacity:.5;fill:#7e7e7e;stroke:none" width="1cm" height="1cm" x="239cm" y="52cm" />
<rect style="opacity:.5;fill:#7e7e7e;stroke:none" width="1cm" height="1cm" x="238cm" y="54cm" />
<rect style="opacity:.5;fill:#7e7e7e;stroke:none" width="1cm" height="1cm" x="215cm" y="54cm" />
<rect style="opacity:.5;fill:#7e7e7e;stroke:none" width="1cm" height="1cm" x="14cm" y="31cm" />
<rect style="opacity:.5;fill:#7e7e7e;stroke:none" width="1cm" height="1cm" x="21cm" y="38cm" />
<rect style="opacity:.5;fill:#7e7e7e;stroke:none" width="1cm" height="1cm" x="184cm" y="54cm" />
<rect style="opacity:.5;fill:#7e7e7e;stroke:none" width="1cm" height="1cm" x="216cm" y="54cm" />
<rect style="opacity:.5;fill:#7e7e7e;stroke:none" width="1cm" height="1cm" x="23cm" y="53cm" />
<rect style="opacity:.5;fill:#7e7e7e;stroke:none" width="1cm" height="1cm" x="21cm" y="51cm" />
<rect style="opacity:.5;fill:#7e7e7e;stroke:none" width="1cm" height="1cm" x="19cm" y="52cm" />
<rect style="opacity:.5;fill:#7e7e7e;stroke:none" width="1cm" height="1cm" x="264cm" y="54cm" />
<rect style="opacity:.5;fill:#7e7e7e;stroke:none" width="1cm" height="1cm" x="239cm" y="54cm" />
</svg>